<?xml version="1.0" encoding="UTF-8" standalone="no"?>
<!DOCTYPE svg PUBLIC "-//W3C//DTD SVG 1.1//EN" "http://www.w3.org/Graphics/SVG/1.1/DTD/svg11.dtd">
<svg width="100%" height="100%" viewBox="0 0 2050 2050" version="1.1" xmlns="http://www.w3.org/2000/svg" xmlns:xlink="http://www.w3.org/1999/xlink" xml:space="preserve" xmlns:serif="http://www.serif.com/" style="fill-rule:evenodd;clip-rule:evenodd;stroke-linejoin:round;stroke-miterlimit:2;">
    <g transform="matrix(1.69107,0,0,1.69107,-2034.74,-614.543)">
        <g>
            <g transform="matrix(0.998832,0.0483226,-0.0483226,0.998832,28.8118,-86.7747)">
                <g transform="matrix(66,0,0,66,1809.09,552.504)">
                    <path d="M0.232,-0.298C0.291,-0.306 0.322,-0.344 0.322,-0.41L0.322,-0.58C0.322,-0.652 0.346,-0.685 0.422,-0.685L0.475,-0.685L0.475,-0.75L0.418,-0.75C0.294,-0.75 0.248,-0.696 0.248,-0.583L0.248,-0.426C0.248,-0.362 0.218,-0.338 0.145,-0.336L0.145,-0.256C0.218,-0.254 0.248,-0.23 0.248,-0.166L0.248,-0.009C0.248,0.104 0.294,0.158 0.418,0.158L0.475,0.158L0.475,0.093L0.422,0.093C0.346,0.093 0.322,0.06 0.322,-0.012L0.322,-0.182C0.322,-0.248 0.291,-0.286 0.232,-0.294L0.232,-0.298Z" style="fill:rgb(255,51,68);fill-rule:nonzero;"/>
                </g>
            </g>
            <g transform="matrix(0.989318,0.145771,-0.145771,0.989318,100.588,-263.752)">
                <g transform="matrix(66,0,0,66,1849.99,554.481)">
                    <path d="M0.422,-0.75L0.357,-0.75C0.274,-0.649 0.197,-0.496 0.197,-0.296C0.197,-0.096 0.274,0.057 0.357,0.158L0.422,0.158L0.422,0.148C0.348,0.051 0.276,-0.096 0.276,-0.296C0.276,-0.496 0.348,-0.643 0.422,-0.74L0.422,-0.75Z" style="fill:rgb(187,34,51);fill-rule:nonzero;"/>
                </g>
            </g>
            <g transform="matrix(0.970125,0.242606,-0.242606,0.970125,192.443,-441.89)">
                <g transform="matrix(66,0,0,66,1890.45,560.442)">
                    <path d="M0.262,-0.75L0.197,-0.75L0.197,-0.74C0.271,-0.643 0.343,-0.496 0.343,-0.296C0.343,-0.096 0.271,0.051 0.197,0.148L0.197,0.158L0.262,0.158C0.345,0.057 0.422,-0.096 0.422,-0.296C0.422,-0.496 0.345,-0.649 0.262,-0.75Z" style="fill:rgb(187,34,51);fill-rule:nonzero;"/>
                </g>
            </g>
            <g transform="matrix(0.941437,0.337188,-0.337188,0.941437,305.351,-617.406)">
                <g transform="matrix(66,0,0,66,1930.1,570.361)">
                    <path d="M0.371,-0.426L0.371,-0.583C0.371,-0.696 0.325,-0.75 0.201,-0.75L0.144,-0.75L0.144,-0.685L0.197,-0.685C0.273,-0.685 0.297,-0.652 0.297,-0.58L0.297,-0.41C0.297,-0.344 0.328,-0.306 0.387,-0.298L0.387,-0.294C0.328,-0.286 0.297,-0.248 0.297,-0.182L0.297,-0.012C0.297,0.06 0.273,0.093 0.197,0.093L0.144,0.093L0.144,0.158L0.201,0.158C0.325,0.158 0.371,0.104 0.371,-0.009L0.371,-0.166C0.371,-0.23 0.411,-0.254 0.474,-0.256L0.474,-0.336C0.411,-0.338 0.371,-0.362 0.371,-0.426Z" style="fill:rgb(255,51,68);fill-rule:nonzero;"/>
                </g>
            </g>
            <g transform="matrix(0.903559,0.428464,-0.428464,0.903559,440.133,-787.124)">
                <g transform="matrix(66,0,0,66,1968.56,584.137)">
                    <path d="M0.232,-0.298C0.291,-0.306 0.322,-0.344 0.322,-0.41L0.322,-0.58C0.322,-0.652 0.346,-0.685 0.422,-0.685L0.475,-0.685L0.475,-0.75L0.418,-0.75C0.294,-0.75 0.248,-0.696 0.248,-0.583L0.248,-0.426C0.248,-0.362 0.218,-0.338 0.145,-0.336L0.145,-0.256C0.218,-0.254 0.248,-0.23 0.248,-0.166L0.248,-0.009C0.248,0.104 0.294,0.158 0.418,0.158L0.475,0.158L0.475,0.093L0.422,0.093C0.346,0.093 0.322,0.06 0.322,-0.012L0.322,-0.182C0.322,-0.248 0.291,-0.286 0.232,-0.294L0.232,-0.298Z" style="fill:rgb(255,51,68);fill-rule:nonzero;"/>
                </g>
            </g>
            <g transform="matrix(0.857041,0.515248,-0.515248,0.857041,596.742,-947.356)">
                <g transform="matrix(66,0,0,66,2005.58,601.7)">
                    <path d="M0.422,-0.75L0.357,-0.75C0.274,-0.649 0.197,-0.496 0.197,-0.296C0.197,-0.096 0.274,0.057 0.357,0.158L0.422,0.158L0.422,0.148C0.348,0.051 0.276,-0.096 0.276,-0.296C0.276,-0.496 0.348,-0.643 0.422,-0.74L0.422,-0.75Z" style="fill:rgb(187,34,51);fill-rule:nonzero;"/>
                </g>
            </g>
            <g transform="matrix(0.802648,0.596454,-0.596454,0.802648,774.147,-1094.21)">
                <g transform="matrix(66,0,0,66,2040.58,622.737)">
                    <path d="M0.262,-0.75L0.197,-0.75L0.197,-0.74C0.271,-0.643 0.343,-0.496 0.343,-0.296C0.343,-0.096 0.271,0.051 0.197,0.148L0.197,0.158L0.262,0.158C0.345,0.057 0.422,-0.096 0.422,-0.296C0.422,-0.496 0.345,-0.649 0.262,-0.75Z" style="fill:rgb(187,34,51);fill-rule:nonzero;"/>
                </g>
            </g>
            <g transform="matrix(0.740736,0.671796,-0.671796,0.740736,972.307,-1225.13)">
                <g transform="matrix(66,0,0,66,2073.41,647.141)">
                    <path d="M0.371,-0.426L0.371,-0.583C0.371,-0.696 0.325,-0.75 0.201,-0.75L0.144,-0.75L0.144,-0.685L0.197,-0.685C0.273,-0.685 0.297,-0.652 0.297,-0.58L0.297,-0.41C0.297,-0.344 0.328,-0.306 0.387,-0.298L0.387,-0.294C0.328,-0.286 0.297,-0.248 0.297,-0.182L0.297,-0.012C0.297,0.06 0.273,0.093 0.197,0.093L0.144,0.093L0.144,0.158L0.201,0.158C0.325,0.158 0.371,0.104 0.371,-0.009L0.371,-0.166C0.371,-0.23 0.411,-0.254 0.474,-0.256L0.474,-0.336C0.411,-0.338 0.371,-0.362 0.371,-0.426Z" style="fill:rgb(255,51,68);fill-rule:nonzero;"/>
                </g>
            </g>
            <g transform="matrix(0.671796,0.740736,-0.740736,0.671796,1190.12,-1336.86)">
                <g transform="matrix(66,0,0,66,2103.67,674.585)">
                    <path d="M0.232,-0.298C0.291,-0.306 0.322,-0.344 0.322,-0.41L0.322,-0.58C0.322,-0.652 0.346,-0.685 0.422,-0.685L0.475,-0.685L0.475,-0.75L0.418,-0.75C0.294,-0.75 0.248,-0.696 0.248,-0.583L0.248,-0.426C0.248,-0.362 0.218,-0.338 0.145,-0.336L0.145,-0.256C0.218,-0.254 0.248,-0.23 0.248,-0.166L0.248,-0.009C0.248,0.104 0.294,0.158 0.418,0.158L0.475,0.158L0.475,0.093L0.422,0.093C0.346,0.093 0.322,0.06 0.322,-0.012L0.322,-0.182C0.322,-0.248 0.291,-0.286 0.232,-0.294L0.232,-0.298Z" style="fill:rgb(255,51,68);fill-rule:nonzero;"/>
                </g>
            </g>
            <g transform="matrix(0.596454,0.802648,-0.802648,0.596454,1425.79,-1426.11)">
                <g transform="matrix(66,0,0,66,2131.15,704.888)">
                    <path d="M0.422,-0.75L0.357,-0.75C0.274,-0.649 0.197,-0.496 0.197,-0.296C0.197,-0.096 0.274,0.057 0.357,0.158L0.422,0.158L0.422,0.148C0.348,0.051 0.276,-0.096 0.276,-0.296C0.276,-0.496 0.348,-0.643 0.422,-0.74L0.422,-0.75Z" style="fill:rgb(187,34,51);fill-rule:nonzero;"/>
                </g>
            </g>
            <g transform="matrix(0.515248,0.857041,-0.857041,0.515248,1677.09,-1489.78)">
                <g transform="matrix(66,0,0,66,2155.51,737.657)">
                    <path d="M0.262,-0.75L0.197,-0.75L0.197,-0.74C0.271,-0.643 0.343,-0.496 0.343,-0.296C0.343,-0.096 0.271,0.051 0.197,0.148L0.197,0.158L0.262,0.158C0.345,0.057 0.422,-0.096 0.422,-0.296C0.422,-0.496 0.345,-0.649 0.262,-0.75Z" style="fill:rgb(187,34,51);fill-rule:nonzero;"/>
                </g>
            </g>
            <g transform="matrix(0.428464,0.903559,-0.903559,0.428464,1942.26,-1525.03)">
                <g transform="matrix(66,0,0,66,2176.61,772.779)">
                    <path d="M0.371,-0.426L0.371,-0.583C0.371,-0.696 0.325,-0.75 0.201,-0.75L0.144,-0.75L0.144,-0.685L0.197,-0.685C0.273,-0.685 0.297,-0.652 0.297,-0.58L0.297,-0.41C0.297,-0.344 0.328,-0.306 0.387,-0.298L0.387,-0.294C0.328,-0.286 0.297,-0.248 0.297,-0.182L0.297,-0.012C0.297,0.06 0.273,0.093 0.197,0.093L0.144,0.093L0.144,0.158L0.201,0.158C0.325,0.158 0.371,0.104 0.371,-0.009L0.371,-0.166C0.371,-0.23 0.411,-0.254 0.474,-0.256L0.474,-0.336C0.411,-0.338 0.371,-0.362 0.371,-0.426Z" style="fill:rgb(255,51,68);fill-rule:nonzero;"/>
                </g>
            </g>
            <g transform="matrix(0.337188,0.941437,-0.941437,0.337188,2216.56,-1528.95)">
                <g transform="matrix(66,0,0,66,2194.12,809.691)">
                    <path d="M0.232,-0.298C0.291,-0.306 0.322,-0.344 0.322,-0.41L0.322,-0.58C0.322,-0.652 0.346,-0.685 0.422,-0.685L0.475,-0.685L0.475,-0.75L0.418,-0.75C0.294,-0.75 0.248,-0.696 0.248,-0.583L0.248,-0.426C0.248,-0.362 0.218,-0.338 0.145,-0.336L0.145,-0.256C0.218,-0.254 0.248,-0.23 0.248,-0.166L0.248,-0.009C0.248,0.104 0.294,0.158 0.418,0.158L0.475,0.158L0.475,0.093L0.422,0.093C0.346,0.093 0.322,0.06 0.322,-0.012L0.322,-0.182C0.322,-0.248 0.291,-0.286 0.232,-0.294L0.232,-0.298Z" style="fill:rgb(255,51,68);fill-rule:nonzero;"/>
                </g>
            </g>
            <g transform="matrix(0.242606,0.970125,-0.970125,0.242606,2495.09,-1499.54)">
                <g transform="matrix(66,0,0,66,2207.9,848.173)">
                    <path d="M0.422,-0.75L0.357,-0.75C0.274,-0.649 0.197,-0.496 0.197,-0.296C0.197,-0.096 0.274,0.057 0.357,0.158L0.422,0.158L0.422,0.148C0.348,0.051 0.276,-0.096 0.276,-0.296C0.276,-0.496 0.348,-0.643 0.422,-0.74L0.422,-0.75Z" style="fill:rgb(187,34,51);fill-rule:nonzero;"/>
                </g>
            </g>
            <g transform="matrix(0.145771,0.989318,-0.989318,0.145771,2772.89,-1435.71)">
                <g transform="matrix(66,0,0,66,2217.82,887.843)">
                    <path d="M0.262,-0.75L0.197,-0.75L0.197,-0.74C0.271,-0.643 0.343,-0.496 0.343,-0.296C0.343,-0.096 0.271,0.051 0.197,0.148L0.197,0.158L0.262,0.158C0.345,0.057 0.422,-0.096 0.422,-0.296C0.422,-0.496 0.345,-0.649 0.262,-0.75Z" style="fill:rgb(187,34,51);fill-rule:nonzero;"/>
                </g>
            </g>
            <g transform="matrix(0.0483226,0.998832,-0.998832,0.0483226,3043.59,-1337.69)">
                <g transform="matrix(66,0,0,66,2223.78,928.354)">
                    <path d="M0.371,-0.426L0.371,-0.583C0.371,-0.696 0.325,-0.75 0.201,-0.75L0.144,-0.75L0.144,-0.685L0.197,-0.685C0.273,-0.685 0.297,-0.652 0.297,-0.58L0.297,-0.41C0.297,-0.344 0.328,-0.306 0.387,-0.298L0.387,-0.294C0.328,-0.286 0.297,-0.248 0.297,-0.182L0.297,-0.012C0.297,0.06 0.273,0.093 0.197,0.093L0.144,0.093L0.144,0.158L0.201,0.158C0.325,0.158 0.371,0.104 0.371,-0.009L0.371,-0.166C0.371,-0.23 0.411,-0.254 0.474,-0.256L0.474,-0.336C0.411,-0.338 0.371,-0.362 0.371,-0.426Z" style="fill:rgb(255,51,68);fill-rule:nonzero;"/>
                </g>
            </g>
            <g transform="matrix(-0.0483226,0.998832,-0.998832,-0.0483226,3301.27,-1207.23)">
                <g transform="matrix(66,0,0,66,2225.75,969.095)">
                    <path d="M0.232,-0.298C0.291,-0.306 0.322,-0.344 0.322,-0.41L0.322,-0.58C0.322,-0.652 0.346,-0.685 0.422,-0.685L0.475,-0.685L0.475,-0.75L0.418,-0.75C0.294,-0.75 0.248,-0.696 0.248,-0.583L0.248,-0.426C0.248,-0.362 0.218,-0.338 0.145,-0.336L0.145,-0.256C0.218,-0.254 0.248,-0.23 0.248,-0.166L0.248,-0.009C0.248,0.104 0.294,0.158 0.418,0.158L0.475,0.158L0.475,0.093L0.422,0.093C0.346,0.093 0.322,0.06 0.322,-0.012L0.322,-0.182C0.322,-0.248 0.291,-0.286 0.232,-0.294L0.232,-0.298Z" style="fill:rgb(255,51,68);fill-rule:nonzero;"/>
                </g>
            </g>
            <g transform="matrix(-0.145771,0.989318,-0.989318,-0.145771,3547.14,-1042.8)">
                <g transform="matrix(66,0,0,66,2223.77,1009.99)">
                    <path d="M0.422,-0.75L0.357,-0.75C0.274,-0.649 0.197,-0.496 0.197,-0.296C0.197,-0.096 0.274,0.057 0.357,0.158L0.422,0.158L0.422,0.148C0.348,0.051 0.276,-0.096 0.276,-0.296C0.276,-0.496 0.348,-0.643 0.422,-0.74L0.422,-0.75Z" style="fill:rgb(187,34,51);fill-rule:nonzero;"/>
                </g>
            </g>
            <g transform="matrix(-0.242606,0.970125,-0.970125,-0.242606,3774.93,-846.263)">
                <g transform="matrix(66,0,0,66,2217.81,1050.45)">
                    <path d="M0.262,-0.75L0.197,-0.75L0.197,-0.74C0.271,-0.643 0.343,-0.496 0.343,-0.296C0.343,-0.096 0.271,0.051 0.197,0.148L0.197,0.158L0.262,0.158C0.345,0.057 0.422,-0.096 0.422,-0.296C0.422,-0.496 0.345,-0.649 0.262,-0.75Z" style="fill:rgb(187,34,51);fill-rule:nonzero;"/>
                </g>
            </g>
            <g transform="matrix(-0.337188,0.941437,-0.941437,-0.337188,3978.63,-620.922)">
                <g transform="matrix(66,0,0,66,2207.89,1090.1)">
                    <path d="M0.371,-0.426L0.371,-0.583C0.371,-0.696 0.325,-0.75 0.201,-0.75L0.144,-0.75L0.144,-0.685L0.197,-0.685C0.273,-0.685 0.297,-0.652 0.297,-0.58L0.297,-0.41C0.297,-0.344 0.328,-0.306 0.387,-0.298L0.387,-0.294C0.328,-0.286 0.297,-0.248 0.297,-0.182L0.297,-0.012C0.297,0.06 0.273,0.093 0.197,0.093L0.144,0.093L0.144,0.158L0.201,0.158C0.325,0.158 0.371,0.104 0.371,-0.009L0.371,-0.166C0.371,-0.23 0.411,-0.254 0.474,-0.256L0.474,-0.336C0.411,-0.338 0.371,-0.362 0.371,-0.426Z" style="fill:rgb(255,51,68);fill-rule:nonzero;"/>
                </g>
            </g>
            <g transform="matrix(-0.428464,0.903559,-0.903559,-0.428464,4153.94,-370.404)">
                <g transform="matrix(66,0,0,66,2194.12,1128.56)">
                    <path d="M0.232,-0.298C0.291,-0.306 0.322,-0.344 0.322,-0.41L0.322,-0.58C0.322,-0.652 0.346,-0.685 0.422,-0.685L0.475,-0.685L0.475,-0.75L0.418,-0.75C0.294,-0.75 0.248,-0.696 0.248,-0.583L0.248,-0.426C0.248,-0.362 0.218,-0.338 0.145,-0.336L0.145,-0.256C0.218,-0.254 0.248,-0.23 0.248,-0.166L0.248,-0.009C0.248,0.104 0.294,0.158 0.418,0.158L0.475,0.158L0.475,0.093L0.422,0.093C0.346,0.093 0.322,0.06 0.322,-0.012L0.322,-0.182C0.322,-0.248 0.291,-0.286 0.232,-0.294L0.232,-0.298Z" style="fill:rgb(255,51,68);fill-rule:nonzero;"/>
                </g>
            </g>
            <g transform="matrix(-0.515087,0.857138,-0.857138,-0.515087,4296.73,-99.7834)">
                <g transform="matrix(66,0,0,66,2176.59,1165.52)">
                    <path d="M0.422,-0.75L0.357,-0.75C0.274,-0.649 0.197,-0.496 0.197,-0.296C0.197,-0.096 0.274,0.057 0.357,0.158L0.422,0.158L0.422,0.148C0.348,0.051 0.276,-0.096 0.276,-0.296C0.276,-0.496 0.348,-0.643 0.422,-0.74L0.422,-0.75Z" style="fill:rgb(187,34,51);fill-rule:nonzero;"/>
                </g>
            </g>
            <g transform="matrix(-0.596304,0.802759,-0.802759,-0.596304,4404.65,185.984)">
                <g transform="matrix(66,0,0,66,2155.56,1200.51)">
                    <path d="M0.262,-0.75L0.197,-0.75L0.197,-0.74C0.271,-0.643 0.343,-0.496 0.343,-0.296C0.343,-0.096 0.271,0.051 0.197,0.148L0.197,0.158L0.262,0.158C0.345,0.057 0.422,-0.096 0.422,-0.296C0.422,-0.496 0.345,-0.649 0.262,-0.75Z" style="fill:rgb(187,34,51);fill-rule:nonzero;"/>
                </g>
            </g>
            <g transform="matrix(-0.671796,0.740736,-0.740736,-0.671796,4476.42,483.414)">
                <g transform="matrix(66,0,0,66,2131.11,1233.41)">
                    <path d="M0.371,-0.426L0.371,-0.583C0.371,-0.696 0.325,-0.75 0.201,-0.75L0.144,-0.75L0.144,-0.685L0.197,-0.685C0.273,-0.685 0.297,-0.652 0.297,-0.58L0.297,-0.41C0.297,-0.344 0.328,-0.306 0.387,-0.298L0.387,-0.294C0.328,-0.286 0.297,-0.248 0.297,-0.182L0.297,-0.012C0.297,0.06 0.273,0.093 0.197,0.093L0.144,0.093L0.144,0.158L0.201,0.158C0.325,0.158 0.371,0.104 0.371,-0.009L0.371,-0.166C0.371,-0.23 0.411,-0.254 0.474,-0.256L0.474,-0.336C0.411,-0.338 0.371,-0.362 0.371,-0.426Z" style="fill:rgb(255,51,68);fill-rule:nonzero;"/>
                </g>
            </g>
            <g transform="matrix(-0.740736,0.671796,-0.671796,-0.740736,4510.86,786.476)">
                <g transform="matrix(66,0,0,66,2103.67,1263.67)">
                    <path d="M0.232,-0.298C0.291,-0.306 0.322,-0.344 0.322,-0.41L0.322,-0.58C0.322,-0.652 0.346,-0.685 0.422,-0.685L0.475,-0.685L0.475,-0.75L0.418,-0.75C0.294,-0.75 0.248,-0.696 0.248,-0.583L0.248,-0.426C0.248,-0.362 0.218,-0.338 0.145,-0.336L0.145,-0.256C0.218,-0.254 0.248,-0.23 0.248,-0.166L0.248,-0.009C0.248,0.104 0.294,0.158 0.418,0.158L0.475,0.158L0.475,0.093L0.422,0.093C0.346,0.093 0.322,0.06 0.322,-0.012L0.322,-0.182C0.322,-0.248 0.291,-0.286 0.232,-0.294L0.232,-0.298Z" style="fill:rgb(255,51,68);fill-rule:nonzero;"/>
                </g>
            </g>
            <g transform="matrix(-0.802536,0.596604,-0.596604,-0.802536,4507.7,1090.24)">
                <g transform="matrix(66,0,0,66,2073.43,1291.1)">
                    <path d="M0.422,-0.75L0.357,-0.75C0.274,-0.649 0.197,-0.496 0.197,-0.296C0.197,-0.096 0.274,0.057 0.357,0.158L0.422,0.158L0.422,0.148C0.348,0.051 0.276,-0.096 0.276,-0.296C0.276,-0.496 0.348,-0.643 0.422,-0.74L0.422,-0.75Z" style="fill:rgb(187,34,51);fill-rule:nonzero;"/>
                </g>
            </g>
            <g transform="matrix(-0.857041,0.515248,-0.515248,-0.857041,4467.29,1391.53)">
                <g transform="matrix(66,0,0,66,2040.6,1315.51)">
                    <path d="M0.262,-0.75L0.197,-0.75L0.197,-0.74C0.271,-0.643 0.343,-0.496 0.343,-0.296C0.343,-0.096 0.271,0.051 0.197,0.148L0.197,0.158L0.262,0.158C0.345,0.057 0.422,-0.096 0.422,-0.296C0.422,-0.496 0.345,-0.649 0.262,-0.75Z" style="fill:rgb(187,34,51);fill-rule:nonzero;"/>
                </g>
            </g>
            <g transform="matrix(-0.903559,0.428464,-0.428464,-0.903559,4390.23,1685.05)">
                <g transform="matrix(66,0,0,66,2005.48,1336.61)">
                    <path d="M0.371,-0.426L0.371,-0.583C0.371,-0.696 0.325,-0.75 0.201,-0.75L0.144,-0.75L0.144,-0.685L0.197,-0.685C0.273,-0.685 0.297,-0.652 0.297,-0.58L0.297,-0.41C0.297,-0.344 0.328,-0.306 0.387,-0.298L0.387,-0.294C0.328,-0.286 0.297,-0.248 0.297,-0.182L0.297,-0.012C0.297,0.06 0.273,0.093 0.197,0.093L0.144,0.093L0.144,0.158L0.201,0.158C0.325,0.158 0.371,0.104 0.371,-0.009L0.371,-0.166C0.371,-0.23 0.411,-0.254 0.474,-0.256L0.474,-0.336C0.411,-0.338 0.371,-0.362 0.371,-0.426Z" style="fill:rgb(255,51,68);fill-rule:nonzero;"/>
                </g>
            </g>
            <g transform="matrix(-0.941437,0.337188,-0.337188,-0.941437,4278.44,1965.16)">
                <g transform="matrix(66,0,0,66,1968.56,1354.12)">
                    <path d="M0.232,-0.298C0.291,-0.306 0.322,-0.344 0.322,-0.41L0.322,-0.58C0.322,-0.652 0.346,-0.685 0.422,-0.685L0.475,-0.685L0.475,-0.75L0.418,-0.75C0.294,-0.75 0.248,-0.696 0.248,-0.583L0.248,-0.426C0.248,-0.362 0.218,-0.338 0.145,-0.336L0.145,-0.256C0.218,-0.254 0.248,-0.23 0.248,-0.166L0.248,-0.009C0.248,0.104 0.294,0.158 0.418,0.158L0.475,0.158L0.475,0.093L0.422,0.093C0.346,0.093 0.322,0.06 0.322,-0.012L0.322,-0.182C0.322,-0.248 0.291,-0.286 0.232,-0.294L0.232,-0.298Z" style="fill:rgb(255,51,68);fill-rule:nonzero;"/>
                </g>
            </g>
            <g transform="matrix(-0.970125,0.242606,-0.242606,-0.970125,4134.36,2226.69)">
                <g transform="matrix(66,0,0,66,1930.08,1367.9)">
                    <path d="M0.422,-0.75L0.357,-0.75C0.274,-0.649 0.197,-0.496 0.197,-0.296C0.197,-0.096 0.274,0.057 0.357,0.158L0.422,0.158L0.422,0.148C0.348,0.051 0.276,-0.096 0.276,-0.296C0.276,-0.496 0.348,-0.643 0.422,-0.74L0.422,-0.75Z" style="fill:rgb(187,34,51);fill-rule:nonzero;"/>
                </g>
            </g>
            <g transform="matrix(-0.989318,0.145771,-0.145771,-0.989318,3961.48,2465.35)">
                <g transform="matrix(66,0,0,66,1890.41,1377.82)">
                    <path d="M0.262,-0.75L0.197,-0.75L0.197,-0.74C0.271,-0.643 0.343,-0.496 0.343,-0.296C0.343,-0.096 0.271,0.051 0.197,0.148L0.197,0.158L0.262,0.158C0.345,0.057 0.422,-0.096 0.422,-0.296C0.422,-0.496 0.345,-0.649 0.262,-0.75Z" style="fill:rgb(187,34,51);fill-rule:nonzero;"/>
                </g>
            </g>
            <g transform="matrix(-0.998822,0.0485204,-0.0485204,-0.998822,3764.93,2676.15)">
                <g transform="matrix(66,0,0,66,1849.98,1383.77)">
                    <path d="M0.371,-0.426L0.371,-0.583C0.371,-0.696 0.325,-0.75 0.201,-0.75L0.144,-0.75L0.144,-0.685L0.197,-0.685C0.273,-0.685 0.297,-0.652 0.297,-0.58L0.297,-0.41C0.297,-0.344 0.328,-0.306 0.387,-0.298L0.387,-0.294C0.328,-0.286 0.297,-0.248 0.297,-0.182L0.297,-0.012C0.297,0.06 0.273,0.093 0.197,0.093L0.144,0.093L0.144,0.158L0.201,0.158C0.325,0.158 0.371,0.104 0.371,-0.009L0.371,-0.166C0.371,-0.23 0.411,-0.254 0.474,-0.256L0.474,-0.336C0.411,-0.338 0.371,-0.362 0.371,-0.426Z" style="fill:rgb(255,51,68);fill-rule:nonzero;"/>
                </g>
            </g>
            <g transform="matrix(-0.998832,-0.0483226,0.0483226,-0.998832,3549.24,2857.31)">
                <g transform="matrix(66,0,0,66,1809.16,1385.75)">
                    <path d="M0.232,-0.298C0.291,-0.306 0.322,-0.344 0.322,-0.41L0.322,-0.58C0.322,-0.652 0.346,-0.685 0.422,-0.685L0.475,-0.685L0.475,-0.75L0.418,-0.75C0.294,-0.75 0.248,-0.696 0.248,-0.583L0.248,-0.426C0.248,-0.362 0.218,-0.338 0.145,-0.336L0.145,-0.256C0.218,-0.254 0.248,-0.23 0.248,-0.166L0.248,-0.009C0.248,0.104 0.294,0.158 0.418,0.158L0.475,0.158L0.475,0.093L0.422,0.093C0.346,0.093 0.322,0.06 0.322,-0.012L0.322,-0.182C0.322,-0.248 0.291,-0.286 0.232,-0.294L0.232,-0.298Z" style="fill:rgb(255,51,68);fill-rule:nonzero;"/>
                </g>
            </g>
            <g transform="matrix(-0.989318,-0.145771,0.145771,-0.989318,3315.92,3010.53)">
                <g transform="matrix(66,0,0,66,1768.26,1383.77)">
                    <path d="M0.422,-0.75L0.357,-0.75C0.274,-0.649 0.197,-0.496 0.197,-0.296C0.197,-0.096 0.274,0.057 0.357,0.158L0.422,0.158L0.422,0.148C0.348,0.051 0.276,-0.096 0.276,-0.296C0.276,-0.496 0.348,-0.643 0.422,-0.74L0.422,-0.75Z" style="fill:rgb(187,34,51);fill-rule:nonzero;"/>
                </g>
            </g>
            <g transform="matrix(-0.970125,-0.242606,0.242606,-0.970125,3069.73,3133.64)">
                <g transform="matrix(66,0,0,66,1727.81,1377.81)">
                    <path d="M0.262,-0.75L0.197,-0.75L0.197,-0.74C0.271,-0.643 0.343,-0.496 0.343,-0.296C0.343,-0.096 0.271,0.051 0.197,0.148L0.197,0.158L0.262,0.158C0.345,0.057 0.422,-0.096 0.422,-0.296C0.422,-0.496 0.345,-0.649 0.262,-0.75Z" style="fill:rgb(187,34,51);fill-rule:nonzero;"/>
                </g>
            </g>
            <g transform="matrix(-0.941437,-0.337188,0.337188,-0.941437,2816.21,3224.91)">
                <g transform="matrix(66,0,0,66,1688.15,1367.89)">
                    <path d="M0.371,-0.426L0.371,-0.583C0.371,-0.696 0.325,-0.75 0.201,-0.75L0.144,-0.75L0.144,-0.685L0.197,-0.685C0.273,-0.685 0.297,-0.652 0.297,-0.58L0.297,-0.41C0.297,-0.344 0.328,-0.306 0.387,-0.298L0.387,-0.294C0.328,-0.286 0.297,-0.248 0.297,-0.182L0.297,-0.012C0.297,0.06 0.273,0.093 0.197,0.093L0.144,0.093L0.144,0.158L0.201,0.158C0.325,0.158 0.371,0.104 0.371,-0.009L0.371,-0.166C0.371,-0.23 0.411,-0.254 0.474,-0.256L0.474,-0.336C0.411,-0.338 0.371,-0.362 0.371,-0.426Z" style="fill:rgb(255,51,68);fill-rule:nonzero;"/>
                </g>
            </g>
            <g transform="matrix(-0.903559,-0.428464,0.428464,-0.903559,2560.1,3284.48)">
                <g transform="matrix(66,0,0,66,1649.69,1354.12)">
                    <path d="M0.232,-0.298C0.291,-0.306 0.322,-0.344 0.322,-0.41L0.322,-0.58C0.322,-0.652 0.346,-0.685 0.422,-0.685L0.475,-0.685L0.475,-0.75L0.418,-0.75C0.294,-0.75 0.248,-0.696 0.248,-0.583L0.248,-0.426C0.248,-0.362 0.218,-0.338 0.145,-0.336L0.145,-0.256C0.218,-0.254 0.248,-0.23 0.248,-0.166L0.248,-0.009C0.248,0.104 0.294,0.158 0.418,0.158L0.475,0.158L0.475,0.093L0.422,0.093C0.346,0.093 0.322,0.06 0.322,-0.012L0.322,-0.182C0.322,-0.248 0.291,-0.286 0.232,-0.294L0.232,-0.298Z" style="fill:rgb(255,51,68);fill-rule:nonzero;"/>
                </g>
            </g>
            <g transform="matrix(-0.857138,-0.515087,0.515087,-0.857138,2306.62,3312.94)">
                <g transform="matrix(66,0,0,66,1612.74,1336.59)">
                    <path d="M0.422,-0.75L0.357,-0.75C0.274,-0.649 0.197,-0.496 0.197,-0.296C0.197,-0.096 0.274,0.057 0.357,0.158L0.422,0.158L0.422,0.148C0.348,0.051 0.276,-0.096 0.276,-0.296C0.276,-0.496 0.348,-0.643 0.422,-0.74L0.422,-0.75Z" style="fill:rgb(187,34,51);fill-rule:nonzero;"/>
                </g>
            </g>
            <g transform="matrix(-0.802759,-0.596304,0.596304,-0.802759,2059.82,3312.46)">
                <g transform="matrix(66,0,0,66,1577.74,1315.56)">
                    <path d="M0.262,-0.75L0.197,-0.75L0.197,-0.74C0.271,-0.643 0.343,-0.496 0.343,-0.296C0.343,-0.096 0.271,0.051 0.197,0.148L0.197,0.158L0.262,0.158C0.345,0.057 0.422,-0.096 0.422,-0.296C0.422,-0.496 0.345,-0.649 0.262,-0.75Z" style="fill:rgb(187,34,51);fill-rule:nonzero;"/>
                </g>
            </g>
            <g transform="matrix(-0.740736,-0.671796,0.671796,-0.740736,1821.81,3285.31)">
                <g transform="matrix(66,0,0,66,1544.85,1291.11)">
                    <path d="M0.371,-0.426L0.371,-0.583C0.371,-0.696 0.325,-0.75 0.201,-0.75L0.144,-0.75L0.144,-0.685L0.197,-0.685C0.273,-0.685 0.297,-0.652 0.297,-0.58L0.297,-0.41C0.297,-0.344 0.328,-0.306 0.387,-0.298L0.387,-0.294C0.328,-0.286 0.297,-0.248 0.297,-0.182L0.297,-0.012C0.297,0.06 0.273,0.093 0.197,0.093L0.144,0.093L0.144,0.158L0.201,0.158C0.325,0.158 0.371,0.104 0.371,-0.009L0.371,-0.166C0.371,-0.23 0.411,-0.254 0.474,-0.256L0.474,-0.336C0.411,-0.338 0.371,-0.362 0.371,-0.426Z" style="fill:rgb(255,51,68);fill-rule:nonzero;"/>
                </g>
            </g>
            <g transform="matrix(-0.671796,-0.740736,0.740736,-0.671796,1596.03,3234.51)">
                <g transform="matrix(66,0,0,66,1514.59,1263.67)">
                    <path d="M0.232,-0.298C0.291,-0.306 0.322,-0.344 0.322,-0.41L0.322,-0.58C0.322,-0.652 0.346,-0.685 0.422,-0.685L0.475,-0.685L0.475,-0.75L0.418,-0.75C0.294,-0.75 0.248,-0.696 0.248,-0.583L0.248,-0.426C0.248,-0.362 0.218,-0.338 0.145,-0.336L0.145,-0.256C0.218,-0.254 0.248,-0.23 0.248,-0.166L0.248,-0.009C0.248,0.104 0.294,0.158 0.418,0.158L0.475,0.158L0.475,0.093L0.422,0.093C0.346,0.093 0.322,0.06 0.322,-0.012L0.322,-0.182C0.322,-0.248 0.291,-0.286 0.232,-0.294L0.232,-0.298Z" style="fill:rgb(255,51,68);fill-rule:nonzero;"/>
                </g>
            </g>
            <g transform="matrix(-0.596604,-0.802536,0.802536,-0.596604,1384.53,3162.79)">
                <g transform="matrix(66,0,0,66,1487.15,1233.43)">
                    <path d="M0.422,-0.75L0.357,-0.75C0.274,-0.649 0.197,-0.496 0.197,-0.296C0.197,-0.096 0.274,0.057 0.357,0.158L0.422,0.158L0.422,0.148C0.348,0.051 0.276,-0.096 0.276,-0.296C0.276,-0.496 0.348,-0.643 0.422,-0.74L0.422,-0.75Z" style="fill:rgb(187,34,51);fill-rule:nonzero;"/>
                </g>
            </g>
            <g transform="matrix(-0.515248,-0.857041,0.857041,-0.515248,1187.47,3072.84)">
                <g transform="matrix(66,0,0,66,1462.75,1200.6)">
                    <path d="M0.262,-0.75L0.197,-0.75L0.197,-0.74C0.271,-0.643 0.343,-0.496 0.343,-0.296C0.343,-0.096 0.271,0.051 0.197,0.148L0.197,0.158L0.262,0.158C0.345,0.057 0.422,-0.096 0.422,-0.296C0.422,-0.496 0.345,-0.649 0.262,-0.75Z" style="fill:rgb(187,34,51);fill-rule:nonzero;"/>
                </g>
            </g>
            <g transform="matrix(-0.428636,-0.903477,0.903477,-0.428636,1006.59,2967.67)">
                <g transform="matrix(66,0,0,66,1441.68,1165.55)">
                    <path d="M0.371,-0.426L0.371,-0.583C0.371,-0.696 0.325,-0.75 0.201,-0.75L0.144,-0.75L0.144,-0.685L0.197,-0.685C0.273,-0.685 0.297,-0.652 0.297,-0.58L0.297,-0.41C0.297,-0.344 0.328,-0.306 0.387,-0.298L0.387,-0.294C0.328,-0.286 0.297,-0.248 0.297,-0.182L0.297,-0.012C0.297,0.06 0.273,0.093 0.197,0.093L0.144,0.093L0.144,0.158L0.201,0.158C0.325,0.158 0.371,0.104 0.371,-0.009L0.371,-0.166C0.371,-0.23 0.411,-0.254 0.474,-0.256L0.474,-0.336C0.411,-0.338 0.371,-0.362 0.371,-0.426Z" style="fill:rgb(255,51,68);fill-rule:nonzero;"/>
                </g>
            </g>
            <g transform="matrix(-0.337188,-0.941437,0.941437,-0.337188,841.866,2849.84)">
                <g transform="matrix(66,0,0,66,1424.14,1128.56)">
                    <path d="M0.232,-0.298C0.291,-0.306 0.322,-0.344 0.322,-0.41L0.322,-0.58C0.322,-0.652 0.346,-0.685 0.422,-0.685L0.475,-0.685L0.475,-0.75L0.418,-0.75C0.294,-0.75 0.248,-0.696 0.248,-0.583L0.248,-0.426C0.248,-0.362 0.218,-0.338 0.145,-0.336L0.145,-0.256C0.218,-0.254 0.248,-0.23 0.248,-0.166L0.248,-0.009C0.248,0.104 0.294,0.158 0.418,0.158L0.475,0.158L0.475,0.093L0.422,0.093C0.346,0.093 0.322,0.06 0.322,-0.012L0.322,-0.182C0.322,-0.248 0.291,-0.286 0.232,-0.294L0.232,-0.298Z" style="fill:rgb(255,51,68);fill-rule:nonzero;"/>
                </g>
            </g>
            <g transform="matrix(-0.242606,-0.970125,0.970125,-0.242606,694.997,2722.76)">
                <g transform="matrix(66,0,0,66,1410.35,1090.08)">
                    <path d="M0.422,-0.75L0.357,-0.75C0.274,-0.649 0.197,-0.496 0.197,-0.296C0.197,-0.096 0.274,0.057 0.357,0.158L0.422,0.158L0.422,0.148C0.348,0.051 0.276,-0.096 0.276,-0.296C0.276,-0.496 0.348,-0.643 0.422,-0.74L0.422,-0.75Z" style="fill:rgb(187,34,51);fill-rule:nonzero;"/>
                </g>
            </g>
            <g transform="matrix(-0.145771,-0.989318,0.989318,-0.145771,565.387,2589.01)">
                <g transform="matrix(66,0,0,66,1400.44,1050.41)">
                    <path d="M0.262,-0.75L0.197,-0.75L0.197,-0.74C0.271,-0.643 0.343,-0.496 0.343,-0.296C0.343,-0.096 0.271,0.051 0.197,0.148L0.197,0.158L0.262,0.158C0.345,0.057 0.422,-0.096 0.422,-0.296C0.422,-0.496 0.345,-0.649 0.262,-0.75Z" style="fill:rgb(187,34,51);fill-rule:nonzero;"/>
                </g>
            </g>
            <g transform="matrix(-0.0485204,-0.998822,0.998822,-0.0485204,453.352,2451.83)">
                <g transform="matrix(66,0,0,66,1394.49,1009.98)">
                    <path d="M0.371,-0.426L0.371,-0.583C0.371,-0.696 0.325,-0.75 0.201,-0.75L0.144,-0.75L0.144,-0.685L0.197,-0.685C0.273,-0.685 0.297,-0.652 0.297,-0.58L0.297,-0.41C0.297,-0.344 0.328,-0.306 0.387,-0.298L0.387,-0.294C0.328,-0.286 0.297,-0.248 0.297,-0.182L0.297,-0.012C0.297,0.06 0.273,0.093 0.197,0.093L0.144,0.093L0.144,0.158L0.201,0.158C0.325,0.158 0.371,0.104 0.371,-0.009L0.371,-0.166C0.371,-0.23 0.411,-0.254 0.474,-0.256L0.474,-0.336C0.411,-0.338 0.371,-0.362 0.371,-0.426Z" style="fill:rgb(255,51,68);fill-rule:nonzero;"/>
                </g>
            </g>
            <g transform="matrix(0.0483226,-0.998832,0.998832,0.0483226,357.186,2313.21)">
                <g transform="matrix(66,0,0,66,1392.5,969.161)">
                    <path d="M0.232,-0.298C0.291,-0.306 0.322,-0.344 0.322,-0.41L0.322,-0.58C0.322,-0.652 0.346,-0.685 0.422,-0.685L0.475,-0.685L0.475,-0.75L0.418,-0.75C0.294,-0.75 0.248,-0.696 0.248,-0.583L0.248,-0.426C0.248,-0.362 0.218,-0.338 0.145,-0.336L0.145,-0.256C0.218,-0.254 0.248,-0.23 0.248,-0.166L0.248,-0.009C0.248,0.104 0.294,0.158 0.418,0.158L0.475,0.158L0.475,0.093L0.422,0.093C0.346,0.093 0.322,0.06 0.322,-0.012L0.322,-0.182C0.322,-0.248 0.291,-0.286 0.232,-0.294L0.232,-0.298Z" style="fill:rgb(255,51,68);fill-rule:nonzero;"/>
                </g>
            </g>
            <g transform="matrix(0.145771,-0.989318,0.989318,0.145771,272.861,2172.53)">
                <g transform="matrix(66,0,0,66,1394.48,928.261)">
                    <path d="M0.422,-0.75L0.357,-0.75C0.274,-0.649 0.197,-0.496 0.197,-0.296C0.197,-0.096 0.274,0.057 0.357,0.158L0.422,0.158L0.422,0.148C0.348,0.051 0.276,-0.096 0.276,-0.296C0.276,-0.496 0.348,-0.643 0.422,-0.74L0.422,-0.75Z" style="fill:rgb(187,34,51);fill-rule:nonzero;"/>
                </g>
            </g>
            <g transform="matrix(0.242606,-0.970125,0.970125,0.242606,199.404,2031.02)">
                <g transform="matrix(66,0,0,66,1400.44,887.807)">
                    <path d="M0.262,-0.75L0.197,-0.75L0.197,-0.74C0.271,-0.643 0.343,-0.496 0.343,-0.296C0.343,-0.096 0.271,0.051 0.197,0.148L0.197,0.158L0.262,0.158C0.345,0.057 0.422,-0.096 0.422,-0.296C0.422,-0.496 0.345,-0.649 0.262,-0.75Z" style="fill:rgb(187,34,51);fill-rule:nonzero;"/>
                </g>
            </g>
            <g transform="matrix(0.337188,-0.941437,0.941437,0.337188,136.322,1889.93)">
                <g transform="matrix(66,0,0,66,1410.36,848.153)">
                    <path d="M0.371,-0.426L0.371,-0.583C0.371,-0.696 0.325,-0.75 0.201,-0.75L0.144,-0.75L0.144,-0.685L0.197,-0.685C0.273,-0.685 0.297,-0.652 0.297,-0.58L0.297,-0.41C0.297,-0.344 0.328,-0.306 0.387,-0.298L0.387,-0.294C0.328,-0.286 0.297,-0.248 0.297,-0.182L0.297,-0.012C0.297,0.06 0.273,0.093 0.197,0.093L0.144,0.093L0.144,0.158L0.201,0.158C0.325,0.158 0.371,0.104 0.371,-0.009L0.371,-0.166C0.371,-0.23 0.411,-0.254 0.474,-0.256L0.474,-0.336C0.411,-0.338 0.371,-0.362 0.371,-0.426Z" style="fill:rgb(255,51,68);fill-rule:nonzero;"/>
                </g>
            </g>
            <g transform="matrix(0.428464,-0.903559,0.903559,0.428464,82.34,1749.56)">
                <g transform="matrix(66,0,0,66,1424.14,809.693)">
                    <path d="M0.232,-0.298C0.291,-0.306 0.322,-0.344 0.322,-0.41L0.322,-0.58C0.322,-0.652 0.346,-0.685 0.422,-0.685L0.475,-0.685L0.475,-0.75L0.418,-0.75C0.294,-0.75 0.248,-0.696 0.248,-0.583L0.248,-0.426C0.248,-0.362 0.218,-0.338 0.145,-0.336L0.145,-0.256C0.218,-0.254 0.248,-0.23 0.248,-0.166L0.248,-0.009C0.248,0.104 0.294,0.158 0.418,0.158L0.475,0.158L0.475,0.093L0.422,0.093C0.346,0.093 0.322,0.06 0.322,-0.012L0.322,-0.182C0.322,-0.248 0.291,-0.286 0.232,-0.294L0.232,-0.298Z" style="fill:rgb(255,51,68);fill-rule:nonzero;"/>
                </g>
            </g>
            <g transform="matrix(0.514925,-0.857235,0.857235,0.514925,36.8166,1610.68)">
                <g transform="matrix(66,0,0,66,1441.63,772.809)">
                    <path d="M0.422,-0.75L0.357,-0.75C0.274,-0.649 0.197,-0.496 0.197,-0.296C0.197,-0.096 0.274,0.057 0.357,0.158L0.422,0.158L0.422,0.148C0.348,0.051 0.276,-0.096 0.276,-0.296C0.276,-0.496 0.348,-0.643 0.422,-0.74L0.422,-0.75Z" style="fill:rgb(187,34,51);fill-rule:nonzero;"/>
                </g>
            </g>
            <g transform="matrix(0.596304,-0.802759,0.802759,0.596304,-1.74656,1472.02)">
                <g transform="matrix(66,0,0,66,1462.69,737.744)">
                    <path d="M0.262,-0.75L0.197,-0.75L0.197,-0.74C0.271,-0.643 0.343,-0.496 0.343,-0.296C0.343,-0.096 0.271,0.051 0.197,0.148L0.197,0.158L0.262,0.158C0.345,0.057 0.422,-0.096 0.422,-0.296C0.422,-0.496 0.345,-0.649 0.262,-0.75Z" style="fill:rgb(187,34,51);fill-rule:nonzero;"/>
                </g>
            </g>
            <g transform="matrix(0.671796,-0.740736,0.740736,0.671796,-34.0203,1332.91)">
                <g transform="matrix(66,0,0,66,1487.14,704.847)">
                    <path d="M0.371,-0.426L0.371,-0.583C0.371,-0.696 0.325,-0.75 0.201,-0.75L0.144,-0.75L0.144,-0.685L0.197,-0.685C0.273,-0.685 0.297,-0.652 0.297,-0.58L0.297,-0.41C0.297,-0.344 0.328,-0.306 0.387,-0.298L0.387,-0.294C0.328,-0.286 0.297,-0.248 0.297,-0.182L0.297,-0.012C0.297,0.06 0.273,0.093 0.197,0.093L0.144,0.093L0.144,0.158L0.201,0.158C0.325,0.158 0.371,0.104 0.371,-0.009L0.371,-0.166C0.371,-0.23 0.411,-0.254 0.474,-0.256L0.474,-0.336C0.411,-0.338 0.371,-0.362 0.371,-0.426Z" style="fill:rgb(255,51,68);fill-rule:nonzero;"/>
                </g>
            </g>
            <g transform="matrix(0.740736,-0.671796,0.671796,0.740736,-60.5073,1192.39)">
                <g transform="matrix(66,0,0,66,1514.59,674.587)">
                    <path d="M0.232,-0.298C0.291,-0.306 0.322,-0.344 0.322,-0.41L0.322,-0.58C0.322,-0.652 0.346,-0.685 0.422,-0.685L0.475,-0.685L0.475,-0.75L0.418,-0.75C0.294,-0.75 0.248,-0.696 0.248,-0.583L0.248,-0.426C0.248,-0.362 0.218,-0.338 0.145,-0.336L0.145,-0.256C0.218,-0.254 0.248,-0.23 0.248,-0.166L0.248,-0.009C0.248,0.104 0.294,0.158 0.418,0.158L0.475,0.158L0.475,0.093L0.422,0.093C0.346,0.093 0.322,0.06 0.322,-0.012L0.322,-0.182C0.322,-0.248 0.291,-0.286 0.232,-0.294L0.232,-0.298Z" style="fill:rgb(255,51,68);fill-rule:nonzero;"/>
                </g>
            </g>
            <g transform="matrix(0.802536,-0.596604,0.596604,0.802536,-81.0468,1049.44)">
                <g transform="matrix(66,0,0,66,1544.83,647.154)">
                    <path d="M0.422,-0.75L0.357,-0.75C0.274,-0.649 0.197,-0.496 0.197,-0.296C0.197,-0.096 0.274,0.057 0.357,0.158L0.422,0.158L0.422,0.148C0.348,0.051 0.276,-0.096 0.276,-0.296C0.276,-0.496 0.348,-0.643 0.422,-0.74L0.422,-0.75Z" style="fill:rgb(187,34,51);fill-rule:nonzero;"/>
                </g>
            </g>
            <g transform="matrix(0.857041,-0.515248,0.515248,0.857041,-95.3303,901.913)">
                <g transform="matrix(66,0,0,66,1577.66,622.75)">
                    <path d="M0.262,-0.75L0.197,-0.75L0.197,-0.74C0.271,-0.643 0.343,-0.496 0.343,-0.296C0.343,-0.096 0.271,0.051 0.197,0.148L0.197,0.158L0.262,0.158C0.345,0.057 0.422,-0.096 0.422,-0.296C0.422,-0.496 0.345,-0.649 0.262,-0.75Z" style="fill:rgb(187,34,51);fill-rule:nonzero;"/>
                </g>
            </g>
            <g transform="matrix(0.903477,-0.428636,0.428636,0.903477,-102.238,749.342)">
                <g transform="matrix(66,0,0,66,1612.71,601.679)">
                    <path d="M0.371,-0.426L0.371,-0.583C0.371,-0.696 0.325,-0.75 0.201,-0.75L0.144,-0.75L0.144,-0.685L0.197,-0.685C0.273,-0.685 0.297,-0.652 0.297,-0.58L0.297,-0.41C0.297,-0.344 0.328,-0.306 0.387,-0.298L0.387,-0.294C0.328,-0.286 0.297,-0.248 0.297,-0.182L0.297,-0.012C0.297,0.06 0.273,0.093 0.197,0.093L0.144,0.093L0.144,0.158L0.201,0.158C0.325,0.158 0.371,0.104 0.371,-0.009L0.371,-0.166C0.371,-0.23 0.411,-0.254 0.474,-0.256L0.474,-0.336C0.411,-0.338 0.371,-0.362 0.371,-0.426Z" style="fill:rgb(255,51,68);fill-rule:nonzero;"/>
                </g>
            </g>
            <g transform="matrix(0.941437,-0.337188,0.337188,0.941437,-100.354,590.465)">
                <g transform="matrix(66,0,0,66,1649.69,584.137)">
                    <path d="M0.232,-0.298C0.291,-0.306 0.322,-0.344 0.322,-0.41L0.322,-0.58C0.322,-0.652 0.346,-0.685 0.422,-0.685L0.475,-0.685L0.475,-0.75L0.418,-0.75C0.294,-0.75 0.248,-0.696 0.248,-0.583L0.248,-0.426C0.248,-0.362 0.218,-0.338 0.145,-0.336L0.145,-0.256C0.218,-0.254 0.248,-0.23 0.248,-0.166L0.248,-0.009C0.248,0.104 0.294,0.158 0.418,0.158L0.475,0.158L0.475,0.093L0.422,0.093C0.346,0.093 0.322,0.06 0.322,-0.012L0.322,-0.182C0.322,-0.248 0.291,-0.286 0.232,-0.294L0.232,-0.298Z" style="fill:rgb(255,51,68);fill-rule:nonzero;"/>
                </g>
            </g>
            <g transform="matrix(0.970125,-0.242606,0.242606,0.970125,-87.9368,426.599)">
                <g transform="matrix(66,0,0,66,1688.17,570.353)">
                    <path d="M0.422,-0.75L0.357,-0.75C0.274,-0.649 0.197,-0.496 0.197,-0.296C0.197,-0.096 0.274,0.057 0.357,0.158L0.422,0.158L0.422,0.148C0.348,0.051 0.276,-0.096 0.276,-0.296C0.276,-0.496 0.348,-0.643 0.422,-0.74L0.422,-0.75Z" style="fill:rgb(187,34,51);fill-rule:nonzero;"/>
                </g>
            </g>
            <g transform="matrix(0.989318,-0.145771,0.145771,0.989318,-63.2391,257.855)">
                <g transform="matrix(66,0,0,66,1727.84,560.437)">
                    <path d="M0.262,-0.75L0.197,-0.75L0.197,-0.74C0.271,-0.643 0.343,-0.496 0.343,-0.296C0.343,-0.096 0.271,0.051 0.197,0.148L0.197,0.158L0.262,0.158C0.345,0.057 0.422,-0.096 0.422,-0.296C0.422,-0.496 0.345,-0.649 0.262,-0.75Z" style="fill:rgb(187,34,51);fill-rule:nonzero;"/>
                </g>
            </g>
            <g transform="matrix(0.998822,-0.0485204,0.0485204,0.998822,-24.8212,86.4502)">
                <g transform="matrix(66,0,0,66,1768.27,554.486)">
                    <path d="M0.371,-0.426L0.371,-0.583C0.371,-0.696 0.325,-0.75 0.201,-0.75L0.144,-0.75L0.144,-0.685L0.197,-0.685C0.273,-0.685 0.297,-0.652 0.297,-0.58L0.297,-0.41C0.297,-0.344 0.328,-0.306 0.387,-0.298L0.387,-0.294C0.328,-0.286 0.297,-0.248 0.297,-0.182L0.297,-0.012C0.297,0.06 0.273,0.093 0.197,0.093L0.144,0.093L0.144,0.158L0.201,0.158C0.325,0.158 0.371,0.104 0.371,-0.009L0.371,-0.166C0.371,-0.23 0.411,-0.254 0.474,-0.256L0.474,-0.336C0.411,-0.338 0.371,-0.362 0.371,-0.426Z" style="fill:rgb(255,51,68);fill-rule:nonzero;"/>
                </g>
            </g>
        </g>
    </g>
</svg>
