<?xml version="1.0" encoding="UTF-8" standalone="no"?>
<!DOCTYPE svg PUBLIC "-//W3C//DTD SVG 1.1//EN" "http://www.w3.org/Graphics/SVG/1.1/DTD/svg11.dtd">
<svg width="100%" height="100%" viewBox="0 0 496 1845" version="1.1" xmlns="http://www.w3.org/2000/svg" xmlns:xlink="http://www.w3.org/1999/xlink" xml:space="preserve" xmlns:serif="http://www.serif.com/" style="fill-rule:evenodd;clip-rule:evenodd;stroke-linejoin:round;stroke-miterlimit:2;">
    <g transform="matrix(3.71458,0,0,3.71458,-2309.49,-2635)">
        <path d="M688.5,710.54C652.648,710.54 623.54,739.648 623.54,775.5C623.54,811.352 652.648,840.46 688.5,840.46C724.352,840.46 753.46,811.352 753.46,775.5C753.46,739.648 724.352,710.54 688.5,710.54ZM688.5,713.46C722.741,713.46 750.54,741.259 750.54,775.5C750.54,809.741 722.741,837.54 688.5,837.54C654.259,837.54 626.46,809.741 626.46,775.5C626.46,741.259 654.259,713.46 688.5,713.46Z" style="fill:rgb(255,51,68);"/>
    </g>
    <g transform="matrix(3.71458,0,0,3.71458,-2309.49,-2635)">
        <path d="M637.584,1204.16C639.049,1204.21 640.521,1204.24 642,1204.24C668.809,1204.24 692.057,1191.96 710.287,1172.89C737.461,1144.47 753.46,1100.96 753.46,1061C753.46,1025.15 724.352,996.04 688.5,996.04C652.648,996.04 623.54,1025.15 623.54,1061C623.54,1096.85 652.648,1125.96 688.5,1125.96C695.88,1125.96 702.973,1124.73 709.587,1122.45C708.95,1131.55 702.235,1169.13 635.68,1191.62L635.671,1191.62C632.737,1192.66 630.96,1195.62 631.431,1198.69C631.902,1201.75 634.486,1204.05 637.584,1204.16L637.584,1204.16ZM637.695,1201.24L637.692,1201.24C635.991,1201.18 634.575,1199.92 634.317,1198.25C634.06,1196.57 635.025,1194.95 636.617,1194.38C715.296,1167.79 712.559,1120.28 712.559,1120.28L712.454,1118.28L710.582,1118.99C703.72,1121.61 696.276,1123.04 688.5,1123.04C654.259,1123.04 626.46,1095.24 626.46,1061C626.46,1026.76 654.259,998.96 688.5,998.96C722.741,998.96 750.54,1026.76 750.54,1061C750.54,1100.24 734.859,1142.97 708.177,1170.88C690.503,1189.36 667.991,1201.32 642,1201.32C640.558,1201.32 639.123,1201.3 637.695,1201.24Z" style="fill:rgb(187,34,51);"/>
    </g>
</svg>
