<?xml version="1.0" encoding="UTF-8" standalone="no"?>
<!DOCTYPE svg PUBLIC "-//W3C//DTD SVG 1.1//EN" "http://www.w3.org/Graphics/SVG/1.1/DTD/svg11.dtd">
<svg width="100%" height="100%" viewBox="0 0 2050 2050" version="1.1" xmlns="http://www.w3.org/2000/svg" xmlns:xlink="http://www.w3.org/1999/xlink" xml:space="preserve" xmlns:serif="http://www.serif.com/" style="fill-rule:evenodd;clip-rule:evenodd;stroke-linejoin:round;stroke-miterlimit:2;">
    <g transform="matrix(1.69107,0,0,1.69107,-2210.73,-790.528)">
        <g>
            <g transform="matrix(0.999246,0.0388267,-0.0388267,0.999246,22.8984,-73.869)">
                <g transform="matrix(66,0,0,66,1913.26,552.603)">
                    <path d="M0.52,0.012L0.52,-0.079L0.179,-0.28L0.179,-0.284L0.52,-0.485L0.52,-0.576L0.1,-0.327L0.1,-0.237L0.52,0.012Z" style="fill:rgb(255,51,68);fill-rule:nonzero;"/>
                </g>
            </g>
            <g transform="matrix(0.993194,0.116468,-0.116468,0.993194,77.8435,-223.815)">
                <g transform="matrix(66,0,0,66,1954.07,554.185)">
                    <path d="M0.099,0.012L0.519,-0.237L0.519,-0.327L0.099,-0.576L0.099,-0.485L0.44,-0.284L0.44,-0.28L0.099,-0.079L0.099,0.012Z" style="fill:rgb(255,51,68);fill-rule:nonzero;"/>
                </g>
            </g>
            <g transform="matrix(0.980933,0.194348,-0.194348,0.980933,146.661,-376.995)">
                <g transform="matrix(66,0,0,66,1994.63,558.94)">
                    <path d="M0.52,0.012L0.52,-0.079L0.179,-0.28L0.179,-0.284L0.52,-0.485L0.52,-0.576L0.1,-0.327L0.1,-0.237L0.52,0.012Z" style="fill:rgb(187,34,51);fill-rule:nonzero;"/>
                </g>
            </g>
            <g transform="matrix(0.962523,0.271199,-0.271199,0.962523,229.996,-530.578)">
                <g transform="matrix(66,0,0,66,2034.75,566.89)">
                    <path d="M0.13,0.133L0.206,0.133L0.488,-0.727L0.488,-0.737L0.411,-0.737L0.13,0.123L0.13,0.133Z" style="fill:rgb(187,34,51);fill-rule:nonzero;"/>
                </g>
            </g>
            <g transform="matrix(0.938079,0.34642,-0.34642,0.938079,328.647,-682.709)">
                <g transform="matrix(66,0,0,66,2074.06,577.968)">
                    <path d="M0.099,0.012L0.519,-0.237L0.519,-0.327L0.099,-0.576L0.099,-0.485L0.44,-0.284L0.44,-0.28L0.099,-0.079L0.099,0.012Z" style="fill:rgb(187,34,51);fill-rule:nonzero;"/>
                </g>
            </g>
            <g transform="matrix(0.90776,0.419489,-0.419489,0.90776,443.236,-831.508)">
                <g transform="matrix(66,0,0,66,2112.39,592.124)">
                    <path d="M0.52,0.012L0.52,-0.079L0.179,-0.28L0.179,-0.284L0.52,-0.485L0.52,-0.576L0.1,-0.327L0.1,-0.237L0.52,0.012Z" style="fill:rgb(255,51,68);fill-rule:nonzero;"/>
                </g>
            </g>
            <g transform="matrix(0.872023,0.489465,-0.489465,0.872023,573.296,-974.122)">
                <g transform="matrix(66,0,0,66,2149.48,609.262)">
                    <path d="M0.099,0.012L0.519,-0.237L0.519,-0.327L0.099,-0.576L0.099,-0.485L0.44,-0.284L0.44,-0.28L0.099,-0.079L0.099,0.012Z" style="fill:rgb(255,51,68);fill-rule:nonzero;"/>
                </g>
            </g>
            <g transform="matrix(0.830835,0.556518,-0.556518,0.830835,719.873,-1109.63)">
                <g transform="matrix(66,0,0,66,2185.17,629.304)">
                    <path d="M0.52,0.012L0.52,-0.079L0.179,-0.28L0.179,-0.284L0.52,-0.485L0.52,-0.576L0.1,-0.327L0.1,-0.237L0.52,0.012Z" style="fill:rgb(187,34,51);fill-rule:nonzero;"/>
                </g>
            </g>
            <g transform="matrix(0.784926,0.61959,-0.61959,0.784926,881.271,-1234.7)">
                <g transform="matrix(66,0,0,66,2219.11,652.039)">
                    <path d="M0.13,0.133L0.206,0.133L0.488,-0.727L0.488,-0.737L0.411,-0.737L0.13,0.123L0.13,0.133Z" style="fill:rgb(187,34,51);fill-rule:nonzero;"/>
                </g>
            </g>
            <g transform="matrix(0.734197,0.678936,-0.678936,0.734197,1058.29,-1348.38)">
                <g transform="matrix(66,0,0,66,2251.22,677.391)">
                    <path d="M0.099,0.012L0.519,-0.237L0.519,-0.327L0.099,-0.576L0.099,-0.485L0.44,-0.284L0.44,-0.28L0.099,-0.079L0.099,0.012Z" style="fill:rgb(187,34,51);fill-rule:nonzero;"/>
                </g>
            </g>
            <g transform="matrix(0.678936,0.734197,-0.734197,0.678936,1250.17,-1448.49)">
                <g transform="matrix(66,0,0,66,2281.26,705.175)">
                    <path d="M0.52,0.012L0.52,-0.079L0.179,-0.28L0.179,-0.284L0.52,-0.485L0.52,-0.576L0.1,-0.327L0.1,-0.237L0.52,0.012Z" style="fill:rgb(255,51,68);fill-rule:nonzero;"/>
                </g>
            </g>
            <g transform="matrix(0.619736,0.78481,-0.78481,0.619736,1455.02,-1532.57)">
                <g transform="matrix(66,0,0,66,2309.02,735.189)">
                    <path d="M0.099,0.012L0.519,-0.237L0.519,-0.327L0.099,-0.576L0.099,-0.485L0.44,-0.284L0.44,-0.28L0.099,-0.079L0.099,0.012Z" style="fill:rgb(255,51,68);fill-rule:nonzero;"/>
                </g>
            </g>
            <g transform="matrix(0.556518,0.830835,-0.830835,0.556518,1672.66,-1599.18)">
                <g transform="matrix(66,0,0,66,2334.31,767.221)">
                    <path d="M0.52,0.012L0.52,-0.079L0.179,-0.28L0.179,-0.284L0.52,-0.485L0.52,-0.576L0.1,-0.327L0.1,-0.237L0.52,0.012Z" style="fill:rgb(187,34,51);fill-rule:nonzero;"/>
                </g>
            </g>
            <g transform="matrix(0.489795,0.871838,-0.871838,0.489795,1901.08,-1646.21)">
                <g transform="matrix(66,0,0,66,2357.06,801.18)">
                    <path d="M0.13,0.133L0.206,0.133L0.488,-0.727L0.488,-0.737L0.411,-0.737L0.13,0.123L0.13,0.133Z" style="fill:rgb(187,34,51);fill-rule:nonzero;"/>
                </g>
            </g>
            <g transform="matrix(0.419662,0.90768,-0.90768,0.419662,2139.08,-1671.99)">
                <g transform="matrix(66,0,0,66,2377.08,836.826)">
                    <path d="M0.099,0.012L0.519,-0.237L0.519,-0.327L0.099,-0.576L0.099,-0.485L0.44,-0.284L0.44,-0.28L0.099,-0.079L0.099,0.012Z" style="fill:rgb(187,34,51);fill-rule:nonzero;"/>
                </g>
            </g>
            <g transform="matrix(0.346601,0.938013,-0.938013,0.346601,2384.13,-1674.81)">
                <g transform="matrix(66,0,0,66,2394.23,873.914)">
                    <path d="M0.52,0.012L0.52,-0.079L0.179,-0.28L0.179,-0.284L0.52,-0.485L0.52,-0.576L0.1,-0.327L0.1,-0.237L0.52,0.012Z" style="fill:rgb(255,51,68);fill-rule:nonzero;"/>
                </g>
            </g>
            <g transform="matrix(0.271386,0.96247,-0.96247,0.271386,2632.85,-1653.32)">
                <g transform="matrix(66,0,0,66,2408.41,912.286)">
                    <path d="M0.099,0.012L0.519,-0.237L0.519,-0.327L0.099,-0.576L0.099,-0.485L0.44,-0.284L0.44,-0.28L0.099,-0.079L0.099,0.012Z" style="fill:rgb(255,51,68);fill-rule:nonzero;"/>
                </g>
            </g>
            <g transform="matrix(0.194348,0.980933,-0.980933,0.194348,2882.75,-1606.69)">
                <g transform="matrix(66,0,0,66,2419.5,951.62)">
                    <path d="M0.52,0.012L0.52,-0.079L0.179,-0.28L0.179,-0.284L0.52,-0.485L0.52,-0.576L0.1,-0.327L0.1,-0.237L0.52,0.012Z" style="fill:rgb(187,34,51);fill-rule:nonzero;"/>
                </g>
            </g>
            <g transform="matrix(0.116664,0.993171,-0.993171,0.116664,3129.19,-1534.85)">
                <g transform="matrix(66,0,0,66,2427.44,991.713)">
                    <path d="M0.13,0.133L0.206,0.133L0.488,-0.727L0.488,-0.737L0.411,-0.737L0.13,0.123L0.13,0.133Z" style="fill:rgb(187,34,51);fill-rule:nonzero;"/>
                </g>
            </g>
            <g transform="matrix(0.0388267,0.999246,-0.999246,0.0388267,3369.29,-1438.14)">
                <g transform="matrix(66,0,0,66,2432.2,1032.3)">
                    <path d="M0.099,0.012L0.519,-0.237L0.519,-0.327L0.099,-0.576L0.099,-0.485L0.44,-0.284L0.44,-0.28L0.099,-0.079L0.099,0.012Z" style="fill:rgb(187,34,51);fill-rule:nonzero;"/>
                </g>
            </g>
            <g transform="matrix(-0.0386288,0.999254,-0.999254,-0.0386288,3600.16,-1317.36)">
                <g transform="matrix(66,0,0,66,2433.79,1073.16)">
                    <path d="M0.52,0.012L0.52,-0.079L0.179,-0.28L0.179,-0.284L0.52,-0.485L0.52,-0.576L0.1,-0.327L0.1,-0.237L0.52,0.012Z" style="fill:rgb(255,51,68);fill-rule:nonzero;"/>
                </g>
            </g>
            <g transform="matrix(-0.116272,0.993217,-0.993217,-0.116272,3821.42,-1172.23)">
                <g transform="matrix(66,0,0,66,2432.21,1113.96)">
                    <path d="M0.099,0.012L0.519,-0.237L0.519,-0.327L0.099,-0.576L0.099,-0.485L0.44,-0.284L0.44,-0.28L0.099,-0.079L0.099,0.012Z" style="fill:rgb(255,51,68);fill-rule:nonzero;"/>
                </g>
            </g>
            <g transform="matrix(-0.194156,0.980971,-0.980971,-0.194156,4031.34,-1002.58)">
                <g transform="matrix(66,0,0,66,2427.47,1154.53)">
                    <path d="M0.52,0.012L0.52,-0.079L0.179,-0.28L0.179,-0.284L0.52,-0.485L0.52,-0.576L0.1,-0.327L0.1,-0.237L0.52,0.012Z" style="fill:rgb(187,34,51);fill-rule:nonzero;"/>
                </g>
            </g>
            <g transform="matrix(-0.271012,0.962576,-0.962576,-0.271012,4225.19,-810.558)">
                <g transform="matrix(66,0,0,66,2419.52,1194.65)">
                    <path d="M0.13,0.133L0.206,0.133L0.488,-0.727L0.488,-0.737L0.411,-0.737L0.13,0.123L0.13,0.133Z" style="fill:rgb(187,34,51);fill-rule:nonzero;"/>
                </g>
            </g>
            <g transform="matrix(-0.34624,0.938146,-0.938146,-0.34624,4400,-598.267)">
                <g transform="matrix(66,0,0,66,2408.45,1233.97)">
                    <path d="M0.099,0.012L0.519,-0.237L0.519,-0.327L0.099,-0.576L0.099,-0.485L0.44,-0.284L0.44,-0.28L0.099,-0.079L0.099,0.012Z" style="fill:rgb(187,34,51);fill-rule:nonzero;"/>
                </g>
            </g>
            <g transform="matrix(-0.419489,0.90776,-0.90776,-0.419489,4553.66,-367.275)">
                <g transform="matrix(66,0,0,66,2394.27,1272.39)">
                    <path d="M0.52,0.012L0.52,-0.079L0.179,-0.28L0.179,-0.284L0.52,-0.485L0.52,-0.576L0.1,-0.327L0.1,-0.237L0.52,0.012Z" style="fill:rgb(255,51,68);fill-rule:nonzero;"/>
                </g>
            </g>
            <g transform="matrix(-0.489465,0.872023,-0.872023,-0.489465,4682.54,-122.492)">
                <g transform="matrix(66,0,0,66,2377.13,1309.48)">
                    <path d="M0.099,0.012L0.519,-0.237L0.519,-0.327L0.099,-0.576L0.099,-0.485L0.44,-0.284L0.44,-0.28L0.099,-0.079L0.099,0.012Z" style="fill:rgb(255,51,68);fill-rule:nonzero;"/>
                </g>
            </g>
            <g transform="matrix(-0.556362,0.83094,-0.83094,-0.556362,4786.25,134.805)">
                <g transform="matrix(66,0,0,66,2357.14,1345.09)">
                    <path d="M0.52,0.012L0.52,-0.079L0.179,-0.28L0.179,-0.284L0.52,-0.485L0.52,-0.576L0.1,-0.327L0.1,-0.237L0.52,0.012Z" style="fill:rgb(187,34,51);fill-rule:nonzero;"/>
                </g>
            </g>
            <g transform="matrix(-0.619443,0.785041,-0.785041,-0.619443,4863.04,400.658)">
                <g transform="matrix(66,0,0,66,2334.41,1379.03)">
                    <path d="M0.13,0.133L0.206,0.133L0.488,-0.727L0.488,-0.737L0.411,-0.737L0.13,0.123L0.13,0.133Z" style="fill:rgb(187,34,51);fill-rule:nonzero;"/>
                </g>
            </g>
            <g transform="matrix(-0.678799,0.734324,-0.734324,-0.678799,4912.69,673.432)">
                <g transform="matrix(66,0,0,66,2309.06,1411.15)">
                    <path d="M0.099,0.012L0.519,-0.237L0.519,-0.327L0.099,-0.576L0.099,-0.485L0.44,-0.284L0.44,-0.28L0.099,-0.079L0.099,0.012Z" style="fill:rgb(187,34,51);fill-rule:nonzero;"/>
                </g>
            </g>
            <g transform="matrix(-0.733945,0.679209,-0.679209,-0.733945,4934.57,949.314)">
                <g transform="matrix(66,0,0,66,2281.35,1441.12)">
                    <path d="M0.52,0.012L0.52,-0.079L0.179,-0.28L0.179,-0.284L0.52,-0.485L0.52,-0.576L0.1,-0.327L0.1,-0.237L0.52,0.012Z" style="fill:rgb(255,51,68);fill-rule:nonzero;"/>
                </g>
            </g>
            <g transform="matrix(-0.784579,0.620029,-0.620029,-0.784579,4928.47,1225.45)">
                <g transform="matrix(66,0,0,66,2251.35,1468.89)">
                    <path d="M0.099,0.012L0.519,-0.237L0.519,-0.327L0.099,-0.576L0.099,-0.485L0.44,-0.284L0.44,-0.28L0.099,-0.079L0.099,0.012Z" style="fill:rgb(255,51,68);fill-rule:nonzero;"/>
                </g>
            </g>
            <g transform="matrix(-0.830731,0.556674,-0.556674,-0.830731,4894.66,1500.18)">
                <g transform="matrix(66,0,0,66,2219.25,1494.26)">
                    <path d="M0.52,0.012L0.52,-0.079L0.179,-0.28L0.179,-0.284L0.52,-0.485L0.52,-0.576L0.1,-0.327L0.1,-0.237L0.52,0.012Z" style="fill:rgb(187,34,51);fill-rule:nonzero;"/>
                </g>
            </g>
            <g transform="matrix(-0.871745,0.489959,-0.489959,-0.871745,4833.59,1768.75)">
                <g transform="matrix(66,0,0,66,2185.3,1517.01)">
                    <path d="M0.13,0.133L0.206,0.133L0.488,-0.727L0.488,-0.737L0.411,-0.737L0.13,0.123L0.13,0.133Z" style="fill:rgb(187,34,51);fill-rule:nonzero;"/>
                </g>
            </g>
            <g transform="matrix(-0.9076,0.419835,-0.419835,-0.9076,4745.98,2029.56)">
                <g transform="matrix(66,0,0,66,2149.65,1537.04)">
                    <path d="M0.099,0.012L0.519,-0.237L0.519,-0.327L0.099,-0.576L0.099,-0.485L0.44,-0.284L0.44,-0.28L0.099,-0.079L0.099,0.012Z" style="fill:rgb(187,34,51);fill-rule:nonzero;"/>
                </g>
            </g>
            <g transform="matrix(-0.937946,0.346782,-0.346782,-0.937946,4633.01,2279.34)">
                <g transform="matrix(66,0,0,66,2112.57,1554.19)">
                    <path d="M0.52,0.012L0.52,-0.079L0.179,-0.28L0.179,-0.284L0.52,-0.485L0.52,-0.576L0.1,-0.327L0.1,-0.237L0.52,0.012Z" style="fill:rgb(255,51,68);fill-rule:nonzero;"/>
                </g>
            </g>
            <g transform="matrix(-0.962418,0.271573,-0.271573,-0.962418,4496.38,2514.51)">
                <g transform="matrix(66,0,0,66,2074.2,1568.38)">
                    <path d="M0.099,0.012L0.519,-0.237L0.519,-0.327L0.099,-0.576L0.099,-0.485L0.44,-0.284L0.44,-0.28L0.099,-0.079L0.099,0.012Z" style="fill:rgb(255,51,68);fill-rule:nonzero;"/>
                </g>
            </g>
            <g transform="matrix(-0.980895,0.19454,-0.19454,-0.980895,4338.13,2732.91)">
                <g transform="matrix(66,0,0,66,2034.87,1579.47)">
                    <path d="M0.52,0.012L0.52,-0.079L0.179,-0.28L0.179,-0.284L0.52,-0.485L0.52,-0.576L0.1,-0.327L0.1,-0.237L0.52,0.012Z" style="fill:rgb(187,34,51);fill-rule:nonzero;"/>
                </g>
            </g>
            <g transform="matrix(-0.993148,0.11686,-0.11686,-0.993148,4161.4,2930.86)">
                <g transform="matrix(66,0,0,66,1994.78,1587.42)">
                    <path d="M0.13,0.133L0.206,0.133L0.488,-0.727L0.488,-0.737L0.411,-0.737L0.13,0.123L0.13,0.133Z" style="fill:rgb(187,34,51);fill-rule:nonzero;"/>
                </g>
            </g>
            <g transform="matrix(-0.999238,0.0390246,-0.0390246,-0.999238,3969.03,3106.91)">
                <g transform="matrix(66,0,0,66,1954.19,1592.19)">
                    <path d="M0.099,0.012L0.519,-0.237L0.519,-0.327L0.099,-0.576L0.099,-0.485L0.44,-0.284L0.44,-0.28L0.099,-0.079L0.099,0.012Z" style="fill:rgb(187,34,51);fill-rule:nonzero;"/>
                </g>
            </g>
            <g transform="matrix(-0.999261,-0.0384309,0.0384309,-0.999261,3764.01,3259.93)">
                <g transform="matrix(66,0,0,66,1913.34,1593.79)">
                    <path d="M0.52,0.012L0.52,-0.079L0.179,-0.28L0.179,-0.284L0.52,-0.485L0.52,-0.576L0.1,-0.327L0.1,-0.237L0.52,0.012Z" style="fill:rgb(255,51,68);fill-rule:nonzero;"/>
                </g>
            </g>
            <g transform="matrix(-0.99324,-0.116076,0.116076,-0.99324,3547.58,3391.04)">
                <g transform="matrix(66,0,0,66,1872.53,1592.22)">
                    <path d="M0.099,0.012L0.519,-0.237L0.519,-0.327L0.099,-0.576L0.099,-0.485L0.44,-0.284L0.44,-0.28L0.099,-0.079L0.099,0.012Z" style="fill:rgb(255,51,68);fill-rule:nonzero;"/>
                </g>
            </g>
            <g transform="matrix(-0.980971,-0.194156,0.194156,-0.980971,3320.64,3500.39)">
                <g transform="matrix(66,0,0,66,1831.86,1587.47)">
                    <path d="M0.52,0.012L0.52,-0.079L0.179,-0.28L0.179,-0.284L0.52,-0.485L0.52,-0.576L0.1,-0.327L0.1,-0.237L0.52,0.012Z" style="fill:rgb(187,34,51);fill-rule:nonzero;"/>
                </g>
            </g>
            <g transform="matrix(-0.962629,-0.270825,0.270825,-0.962629,3088.93,3585.34)">
                <g transform="matrix(66,0,0,66,1791.84,1579.55)">
                    <path d="M0.13,0.133L0.206,0.133L0.488,-0.727L0.488,-0.737L0.411,-0.737L0.13,0.123L0.13,0.133Z" style="fill:rgb(187,34,51);fill-rule:nonzero;"/>
                </g>
            </g>
            <g transform="matrix(-0.938146,-0.34624,0.34624,-0.938146,2853.39,3646.65)">
                <g transform="matrix(66,0,0,66,1752.42,1568.45)">
                    <path d="M0.099,0.012L0.519,-0.237L0.519,-0.327L0.099,-0.576L0.099,-0.485L0.44,-0.284L0.44,-0.28L0.099,-0.079L0.099,0.012Z" style="fill:rgb(187,34,51);fill-rule:nonzero;"/>
                </g>
            </g>
            <g transform="matrix(-0.90784,-0.419316,0.419316,-0.90784,2618.47,3684.11)">
                <g transform="matrix(66,0,0,66,1714.09,1554.3)">
                    <path d="M0.52,0.012L0.52,-0.079L0.179,-0.28L0.179,-0.284L0.52,-0.485L0.52,-0.576L0.1,-0.327L0.1,-0.237L0.52,0.012Z" style="fill:rgb(255,51,68);fill-rule:nonzero;"/>
                </g>
            </g>
            <g transform="matrix(-0.872115,-0.4893,0.4893,-0.872115,2387.4,3698.32)">
                <g transform="matrix(66,0,0,66,1677,1537.17)">
                    <path d="M0.099,0.012L0.519,-0.237L0.519,-0.327L0.099,-0.576L0.099,-0.485L0.44,-0.284L0.44,-0.28L0.099,-0.079L0.099,0.012Z" style="fill:rgb(255,51,68);fill-rule:nonzero;"/>
                </g>
            </g>
            <g transform="matrix(-0.831044,-0.556206,0.556206,-0.831044,2161.58,3690.99)">
                <g transform="matrix(66,0,0,66,1641.39,1517.19)">
                    <path d="M0.52,0.012L0.52,-0.079L0.179,-0.28L0.179,-0.284L0.52,-0.485L0.52,-0.576L0.1,-0.327L0.1,-0.237L0.52,0.012Z" style="fill:rgb(187,34,51);fill-rule:nonzero;"/>
                </g>
            </g>
            <g transform="matrix(-0.785041,-0.619443,0.619443,-0.785041,1943.5,3663.25)">
                <g transform="matrix(66,0,0,66,1607.36,1494.41)">
                    <path d="M0.13,0.133L0.206,0.133L0.488,-0.727L0.488,-0.737L0.411,-0.737L0.13,0.123L0.13,0.133Z" style="fill:rgb(187,34,51);fill-rule:nonzero;"/>
                </g>
            </g>
            <g transform="matrix(-0.73445,-0.678663,0.678663,-0.73445,1735.27,3617.24)">
                <g transform="matrix(66,0,0,66,1575.32,1469.13)">
                    <path d="M0.099,0.012L0.519,-0.237L0.519,-0.327L0.099,-0.576L0.099,-0.485L0.44,-0.284L0.44,-0.28L0.099,-0.079L0.099,0.012Z" style="fill:rgb(187,34,51);fill-rule:nonzero;"/>
                </g>
            </g>
            <g transform="matrix(-0.679209,-0.733945,0.733945,-0.679209,1536.95,3554.48)">
                <g transform="matrix(66,0,0,66,1545.27,1441.35)">
                    <path d="M0.52,0.012L0.52,-0.079L0.179,-0.28L0.179,-0.284L0.52,-0.485L0.52,-0.576L0.1,-0.327L0.1,-0.237L0.52,0.012Z" style="fill:rgb(255,51,68);fill-rule:nonzero;"/>
                </g>
            </g>
            <g transform="matrix(-0.620029,-0.784579,0.784579,-0.620029,1351.08,3477.03)">
                <g transform="matrix(66,0,0,66,1517.5,1411.35)">
                    <path d="M0.099,0.012L0.519,-0.237L0.519,-0.327L0.099,-0.576L0.099,-0.485L0.44,-0.284L0.44,-0.28L0.099,-0.079L0.099,0.012Z" style="fill:rgb(255,51,68);fill-rule:nonzero;"/>
                </g>
            </g>
            <g transform="matrix(-0.55683,-0.830626,0.830626,-0.55683,1177.38,3386.83)">
                <g transform="matrix(66,0,0,66,1492.19,1379.33)">
                    <path d="M0.52,0.012L0.52,-0.079L0.179,-0.28L0.179,-0.284L0.52,-0.485L0.52,-0.576L0.1,-0.327L0.1,-0.237L0.52,0.012Z" style="fill:rgb(187,34,51);fill-rule:nonzero;"/>
                </g>
            </g>
            <g transform="matrix(-0.490124,-0.871653,0.871653,-0.490124,1016.93,3285.62)">
                <g transform="matrix(66,0,0,66,1469.43,1345.38)">
                    <path d="M0.13,0.133L0.206,0.133L0.488,-0.727L0.488,-0.737L0.411,-0.737L0.13,0.123L0.13,0.133Z" style="fill:rgb(187,34,51);fill-rule:nonzero;"/>
                </g>
            </g>
            <g transform="matrix(-0.419835,-0.9076,0.9076,-0.419835,869.199,3174.92)">
                <g transform="matrix(66,0,0,66,1449.35,1309.65)">
                    <path d="M0.099,0.012L0.519,-0.237L0.519,-0.327L0.099,-0.576L0.099,-0.485L0.44,-0.284L0.44,-0.28L0.099,-0.079L0.099,0.012Z" style="fill:rgb(187,34,51);fill-rule:nonzero;"/>
                </g>
            </g>
            <g transform="matrix(-0.346962,-0.937879,0.937879,-0.346962,735.565,3057.49)">
                <g transform="matrix(66,0,0,66,1432.24,1272.66)">
                    <path d="M0.52,0.012L0.52,-0.079L0.179,-0.28L0.179,-0.284L0.52,-0.485L0.52,-0.576L0.1,-0.327L0.1,-0.237L0.52,0.012Z" style="fill:rgb(255,51,68);fill-rule:nonzero;"/>
                </g>
            </g>
            <g transform="matrix(-0.27176,-0.962365,0.962365,-0.27176,615.57,2934.41)">
                <g transform="matrix(66,0,0,66,1418.04,1234.3)">
                    <path d="M0.099,0.012L0.519,-0.237L0.519,-0.327L0.099,-0.576L0.099,-0.485L0.44,-0.284L0.44,-0.28L0.099,-0.079L0.099,0.012Z" style="fill:rgb(255,51,68);fill-rule:nonzero;"/>
                </g>
            </g>
            <g transform="matrix(-0.19454,-0.980895,0.980895,-0.19454,508.577,2807.36)">
                <g transform="matrix(66,0,0,66,1406.92,1194.87)">
                    <path d="M0.52,0.012L0.52,-0.079L0.179,-0.28L0.179,-0.284L0.52,-0.485L0.52,-0.576L0.1,-0.327L0.1,-0.237L0.52,0.012Z" style="fill:rgb(187,34,51);fill-rule:nonzero;"/>
                </g>
            </g>
            <g transform="matrix(-0.11686,-0.993148,0.993148,-0.11686,415.584,2679.11)">
                <g transform="matrix(66,0,0,66,1398.97,1154.78)">
                    <path d="M0.13,0.133L0.206,0.133L0.488,-0.727L0.488,-0.737L0.411,-0.737L0.13,0.123L0.13,0.133Z" style="fill:rgb(187,34,51);fill-rule:nonzero;"/>
                </g>
            </g>
            <g transform="matrix(-0.0392225,-0.999231,0.999231,-0.0392225,335.453,2551.13)">
                <g transform="matrix(66,0,0,66,1394.21,1114.29)">
                    <path d="M0.099,0.012L0.519,-0.237L0.519,-0.327L0.099,-0.576L0.099,-0.485L0.44,-0.284L0.44,-0.28L0.099,-0.079L0.099,0.012Z" style="fill:rgb(187,34,51);fill-rule:nonzero;"/>
                </g>
            </g>
            <g transform="matrix(0.038233,-0.999269,0.999269,0.038233,266.704,2423.99)">
                <g transform="matrix(66,0,0,66,1392.6,1073.44)">
                    <path d="M0.52,0.012L0.52,-0.079L0.179,-0.28L0.179,-0.284L0.52,-0.485L0.52,-0.576L0.1,-0.327L0.1,-0.237L0.52,0.012Z" style="fill:rgb(255,51,68);fill-rule:nonzero;"/>
                </g>
            </g>
            <g transform="matrix(0.116076,-0.99324,0.99324,0.116076,206.789,2297.42)">
                <g transform="matrix(66,0,0,66,1394.17,1032.53)">
                    <path d="M0.099,0.012L0.519,-0.237L0.519,-0.327L0.099,-0.576L0.099,-0.485L0.44,-0.284L0.44,-0.28L0.099,-0.079L0.099,0.012Z" style="fill:rgb(255,51,68);fill-rule:nonzero;"/>
                </g>
            </g>
            <g transform="matrix(0.193963,-0.981009,0.981009,0.193963,154.45,2171.9)">
                <g transform="matrix(66,0,0,66,1398.91,991.96)">
                    <path d="M0.52,0.012L0.52,-0.079L0.179,-0.28L0.179,-0.284L0.52,-0.485L0.52,-0.576L0.1,-0.327L0.1,-0.237L0.52,0.012Z" style="fill:rgb(187,34,51);fill-rule:nonzero;"/>
                </g>
            </g>
            <g transform="matrix(0.270825,-0.962629,0.962629,0.270825,109.57,2048.32)">
                <g transform="matrix(66,0,0,66,1406.84,951.836)">
                    <path d="M0.13,0.133L0.206,0.133L0.488,-0.727L0.488,-0.737L0.411,-0.737L0.13,0.123L0.13,0.133Z" style="fill:rgb(187,34,51);fill-rule:nonzero;"/>
                </g>
            </g>
            <g transform="matrix(0.346059,-0.938213,0.938213,0.346059,71.0897,1927.03)">
                <g transform="matrix(66,0,0,66,1417.91,912.519)">
                    <path d="M0.099,0.012L0.519,-0.237L0.519,-0.327L0.099,-0.576L0.099,-0.485L0.44,-0.284L0.44,-0.28L0.099,-0.079L0.099,0.012Z" style="fill:rgb(187,34,51);fill-rule:nonzero;"/>
                </g>
            </g>
            <g transform="matrix(0.419143,-0.90792,0.90792,0.419143,38.1286,1807.96)">
                <g transform="matrix(66,0,0,66,1432.05,874.182)">
                    <path d="M0.52,0.012L0.52,-0.079L0.179,-0.28L0.179,-0.284L0.52,-0.485L0.52,-0.576L0.1,-0.327L0.1,-0.237L0.52,0.012Z" style="fill:rgb(255,51,68);fill-rule:nonzero;"/>
                </g>
            </g>
            <g transform="matrix(0.489135,-0.872208,0.872208,0.489135,10.2143,1691.62)">
                <g transform="matrix(66,0,0,66,1449.17,837.091)">
                    <path d="M0.099,0.012L0.519,-0.237L0.519,-0.327L0.099,-0.576L0.099,-0.485L0.44,-0.284L0.44,-0.28L0.099,-0.079L0.099,0.012Z" style="fill:rgb(255,51,68);fill-rule:nonzero;"/>
                </g>
            </g>
            <g transform="matrix(0.556206,-0.831044,0.831044,0.556206,-13.9652,1576.62)">
                <g transform="matrix(66,0,0,66,1469.2,801.386)">
                    <path d="M0.52,0.012L0.52,-0.079L0.179,-0.28L0.179,-0.284L0.52,-0.485L0.52,-0.576L0.1,-0.327L0.1,-0.237L0.52,0.012Z" style="fill:rgb(187,34,51);fill-rule:nonzero;"/>
                </g>
            </g>
            <g transform="matrix(0.619297,-0.785157,0.785157,0.619297,-34.5783,1463.56)">
                <g transform="matrix(66,0,0,66,1491.92,767.437)">
                    <path d="M0.13,0.133L0.206,0.133L0.488,-0.727L0.488,-0.737L0.411,-0.737L0.13,0.123L0.13,0.133Z" style="fill:rgb(187,34,51);fill-rule:nonzero;"/>
                </g>
            </g>
            <g transform="matrix(0.678663,-0.73445,0.73445,0.678663,-52.5009,1350.64)">
                <g transform="matrix(66,0,0,66,1517.26,735.318)">
                    <path d="M0.099,0.012L0.519,-0.237L0.519,-0.327L0.099,-0.576L0.099,-0.485L0.44,-0.284L0.44,-0.28L0.099,-0.079L0.099,0.012Z" style="fill:rgb(187,34,51);fill-rule:nonzero;"/>
                </g>
            </g>
            <g transform="matrix(0.733818,-0.679346,0.679346,0.733818,-67.9243,1237.32)">
                <g transform="matrix(66,0,0,66,1544.97,705.335)">
                    <path d="M0.52,0.012L0.52,-0.079L0.179,-0.28L0.179,-0.284L0.52,-0.485L0.52,-0.576L0.1,-0.327L0.1,-0.237L0.52,0.012Z" style="fill:rgb(255,51,68);fill-rule:nonzero;"/>
                </g>
            </g>
            <g transform="matrix(0.784463,-0.620176,0.620176,0.784463,-80.7454,1122.8)">
                <g transform="matrix(66,0,0,66,1574.97,677.565)">
                    <path d="M0.099,0.012L0.519,-0.237L0.519,-0.327L0.099,-0.576L0.099,-0.485L0.44,-0.284L0.44,-0.28L0.099,-0.079L0.099,0.012Z" style="fill:rgb(255,51,68);fill-rule:nonzero;"/>
                </g>
            </g>
            <g transform="matrix(0.830626,-0.55683,0.55683,0.830626,-90.966,1005.32)">
                <g transform="matrix(66,0,0,66,1607.06,652.192)">
                    <path d="M0.52,0.012L0.52,-0.079L0.179,-0.28L0.179,-0.284L0.52,-0.485L0.52,-0.576L0.1,-0.327L0.1,-0.237L0.52,0.012Z" style="fill:rgb(187,34,51);fill-rule:nonzero;"/>
                </g>
            </g>
            <g transform="matrix(0.871653,-0.490124,0.490124,0.871653,-97.8805,885.086)">
                <g transform="matrix(66,0,0,66,1641.01,629.433)">
                    <path d="M0.13,0.133L0.206,0.133L0.488,-0.727L0.488,-0.737L0.411,-0.737L0.13,0.123L0.13,0.133Z" style="fill:rgb(187,34,51);fill-rule:nonzero;"/>
                </g>
            </g>
            <g transform="matrix(0.90744,-0.420181,0.420181,0.90744,-100.894,760.869)">
                <g transform="matrix(66,0,0,66,1676.56,609.442)">
                    <path d="M0.099,0.012L0.519,-0.237L0.519,-0.327L0.099,-0.576L0.099,-0.485L0.44,-0.284L0.44,-0.28L0.099,-0.079L0.099,0.012Z" style="fill:rgb(187,34,51);fill-rule:nonzero;"/>
                </g>
            </g>
            <g transform="matrix(0.937879,-0.346962,0.346962,0.937879,-99.0248,631.39)">
                <g transform="matrix(66,0,0,66,1713.73,592.235)">
                    <path d="M0.52,0.012L0.52,-0.079L0.179,-0.28L0.179,-0.284L0.52,-0.485L0.52,-0.576L0.1,-0.327L0.1,-0.237L0.52,0.012Z" style="fill:rgb(255,51,68);fill-rule:nonzero;"/>
                </g>
            </g>
            <g transform="matrix(0.962312,-0.271947,0.271947,0.962312,-91.177,498.238)">
                <g transform="matrix(66,0,0,66,1752,578.075)">
                    <path d="M0.099,0.012L0.519,-0.237L0.519,-0.327L0.099,-0.576L0.099,-0.485L0.44,-0.284L0.44,-0.28L0.099,-0.079L0.099,0.012Z" style="fill:rgb(255,51,68);fill-rule:nonzero;"/>
                </g>
            </g>
            <g transform="matrix(0.980818,-0.194925,0.194925,0.980818,-76.1544,360.049)">
                <g transform="matrix(66,0,0,66,1791.32,566.964)">
                    <path d="M0.52,0.012L0.52,-0.079L0.179,-0.28L0.179,-0.284L0.52,-0.485L0.52,-0.576L0.1,-0.327L0.1,-0.237L0.52,0.012Z" style="fill:rgb(187,34,51);fill-rule:nonzero;"/>
                </g>
            </g>
            <g transform="matrix(0.993125,-0.117056,0.117056,0.993125,-52.8413,218.232)">
                <g transform="matrix(66,0,0,66,1831.51,558.984)">
                    <path d="M0.13,0.133L0.206,0.133L0.488,-0.727L0.488,-0.737L0.411,-0.737L0.13,0.123L0.13,0.133Z" style="fill:rgb(187,34,51);fill-rule:nonzero;"/>
                </g>
            </g>
            <g transform="matrix(0.999231,-0.0392225,0.0392225,0.999231,-20.2968,73.8548)">
                <g transform="matrix(66,0,0,66,1872.1,554.206)">
                    <path d="M0.099,0.012L0.519,-0.237L0.519,-0.327L0.099,-0.576L0.099,-0.485L0.44,-0.284L0.44,-0.28L0.099,-0.079L0.099,0.012Z" style="fill:rgb(187,34,51);fill-rule:nonzero;"/>
                </g>
            </g>
        </g>
    </g>
</svg>
