<?xml version="1.0" encoding="UTF-8" standalone="no"?>
<!DOCTYPE svg PUBLIC "-//W3C//DTD SVG 1.1//EN" "http://www.w3.org/Graphics/SVG/1.1/DTD/svg11.dtd">
<svg width="100%" height="100%" viewBox="0 0 75 1000" version="1.1" xmlns="http://www.w3.org/2000/svg" xmlns:xlink="http://www.w3.org/1999/xlink" xml:space="preserve" xmlns:serif="http://www.serif.com/" style="fill-rule:evenodd;clip-rule:evenodd;stroke-linejoin:round;stroke-miterlimit:2;">
    <g transform="matrix(0.488001,0,0,0.488001,-463.12,1.55786e-10)">
        <g transform="matrix(1,0,0,7.67482,810.879,-6316.38)">
            <rect x="209.333" y="823" width="9.333" height="267" style="fill:rgb(17,119,204);"/>
        </g>
        <g transform="matrix(1.13546,0,0,1.13546,835.256,698.71)">
            <path d="M167,226L228,287L167,348L106,287L167,226Z" style="fill:rgb(17,153,255);"/>
        </g>
        <g transform="matrix(1.13546,0,0,1.13546,835.256,698.71)">
            <path d="M233.812,287L167,220.188L100.188,287L167,353.812L233.812,287ZM167,231.812L222.188,287L167,342.188L111.812,287L167,231.812Z" style="fill:rgb(17,119,204);"/>
        </g>
    </g>
</svg>
