<?xml version="1.0" encoding="UTF-8" standalone="no"?>
<!DOCTYPE svg PUBLIC "-//W3C//DTD SVG 1.1//EN" "http://www.w3.org/Graphics/SVG/1.1/DTD/svg11.dtd">
<svg width="100%" height="100%" viewBox="0 0 2050 2050" version="1.1" xmlns="http://www.w3.org/2000/svg" xmlns:xlink="http://www.w3.org/1999/xlink" xml:space="preserve" xmlns:serif="http://www.serif.com/" style="fill-rule:evenodd;clip-rule:evenodd;stroke-linejoin:round;stroke-miterlimit:2;">
    <g transform="matrix(1,0,0,7.67482,-47,-6316.38)">
        <path d="M209.333,823L209.333,1090L218.667,1090L218.667,823L209.333,823Z" style="fill:rgb(17,119,204);"/>
    </g>
    <g transform="matrix(1,0,0,7.67482,120,-6316.38)">
        <path d="M209.333,823L209.333,1090L218.667,1090L218.667,823L209.333,823Z" style="fill:rgb(17,119,204);"/>
    </g>
    <g transform="matrix(1,0,0,7.67482,1501.76,-6316.38)">
        <path d="M209.333,823L209.333,1090L218.667,1090L218.667,823L209.333,823Z" style="fill:rgb(17,119,204);"/>
    </g>
    <g transform="matrix(1,0,0,7.67482,1668.76,-6316.38)">
        <path d="M209.333,823L209.333,1090L218.667,1090L218.667,823L209.333,823Z" style="fill:rgb(17,119,204);"/>
    </g>
</svg>
