<?xml version="1.0" encoding="UTF-8" standalone="no"?>
<!DOCTYPE svg PUBLIC "-//W3C//DTD SVG 1.1//EN" "http://www.w3.org/Graphics/SVG/1.1/DTD/svg11.dtd">
<svg width="100%" height="100%" viewBox="0 0 1349 1349" version="1.1" xmlns="http://www.w3.org/2000/svg" xmlns:xlink="http://www.w3.org/1999/xlink" xml:space="preserve" xmlns:serif="http://www.serif.com/" style="fill-rule:evenodd;clip-rule:evenodd;stroke-linecap:round;stroke-linejoin:round;stroke-miterlimit:1.5;">
    <g transform="matrix(1.99916,0,0,1.99916,-1395.17,-1484.64)">
        <g transform="matrix(0.231304,0,0,0.231304,561.535,606.289)">
            <circle cx="2048" cy="2048" r="1365.33" style="fill:none;stroke:rgb(238,238,238);stroke-width:186.41px;"/>
        </g>
        <g transform="matrix(0.230557,0,0,0.230557,573.21,625.213)">
            <path d="M1503.48,2394.84C1412.66,2508.44 1363.18,2649.56 1363.18,2795C1363.18,3148.91 1650.09,3435.82 2004,3435.82L2004,3248.8C1753.37,3248.8 1550.2,3045.63 1550.2,2795C1550.2,2692 1585.23,2592.07 1649.55,2511.62L1503.48,2394.84Z" style="fill:rgb(238,238,238);"/>
        </g>
        <g transform="matrix(0.230557,0,0,0.230557,573.21,625.213)">
            <path d="M1503.48,2394.84C1412.66,2508.44 1363.18,2649.56 1363.18,2795C1363.18,3148.91 1650.09,3435.82 2004,3435.82L2004,3248.8C1753.37,3248.8 1550.2,3045.63 1550.2,2795C1550.2,2692 1585.23,2592.07 1649.55,2511.62L1503.48,2394.84Z" style="fill:url(#_Linear1);"/>
        </g>
        <g transform="matrix(9.61783,0,0,9.61783,-1237.95,351.046)">
            <path d="M227.666,88.961L231.216,88.961C241.319,88.961 249.521,80.759 249.521,70.656L249.521,62.623L245.037,67.106L245.037,70.656C245.037,78.284 238.844,84.477 231.216,84.477L223.183,84.477L227.666,88.961Z" style="fill:url(#_Linear2);"/>
        </g>
        <g transform="matrix(9.61783,0,0,9.61783,-1237.95,351.046)">
            <path d="M249.521,62.623L241.488,62.623C231.385,62.623 223.183,70.825 223.183,80.928L223.183,88.961L227.666,88.961L227.666,80.928C227.666,73.299 233.859,67.106 241.488,67.106L249.521,67.106L249.521,62.623Z" style="fill:rgb(0,204,102);"/>
        </g>
    </g>
    <defs>
        <linearGradient id="_Linear1" x1="0" y1="0" x2="1" y2="0" gradientUnits="userSpaceOnUse" gradientTransform="matrix(-509.187,-854.625,854.625,-509.187,2004,3249.46)"><stop offset="0" style="stop-color:rgb(0,204,102);stop-opacity:0"/><stop offset="1" style="stop-color:rgb(0,204,102);stop-opacity:1"/></linearGradient>
        <linearGradient id="_Linear2" x1="0" y1="0" x2="1" y2="0" gradientUnits="userSpaceOnUse" gradientTransform="matrix(1.33819e-15,-21.8543,21.8543,1.33819e-15,247.279,86.719)"><stop offset="0" style="stop-color:rgb(0,153,85);stop-opacity:1"/><stop offset="1" style="stop-color:rgb(0,119,68);stop-opacity:1"/></linearGradient>
    </defs>
</svg>
