<?xml version="1.0" encoding="UTF-8" standalone="no"?>
<!DOCTYPE svg PUBLIC "-//W3C//DTD SVG 1.1//EN" "http://www.w3.org/Graphics/SVG/1.1/DTD/svg11.dtd">
<svg width="100%" height="100%" viewBox="0 0 100 100" version="1.1" xmlns="http://www.w3.org/2000/svg" xmlns:xlink="http://www.w3.org/1999/xlink" xml:space="preserve" xmlns:serif="http://www.serif.com/" style="fill-rule:evenodd;clip-rule:evenodd;stroke-linejoin:round;stroke-miterlimit:2;">
    <g>
        <rect x="0" y="0" width="100" height="100" style="fill:white;"/>
        <path d="M83.6,86.8L80.4,86.8L80.4,90L90,90L90,86.8L86.8,86.8L86.8,83.6L83.6,83.6L83.6,86.8ZM45.2,86.8L42,86.8L42,90L45.2,90L45.2,86.8ZM51.6,86.8L48.4,86.8L48.4,90L51.6,90L51.6,86.8ZM64.4,86.8L58,86.8L58,90L64.4,90L64.4,86.8ZM45.2,83.6L45.2,74L35.6,74L35.6,90L38.8,90L38.8,86.8L42,86.8L42,83.6L38.8,83.6L38.8,80.4L42,80.4L42,83.6L45.2,83.6ZM48.4,83.6L45.2,83.6L45.2,86.8L48.4,86.8L48.4,83.6ZM58,86.8L58,80.4L51.6,80.4L51.6,83.6L54.8,83.6L54.8,86.8L58,86.8ZM74,83.6L74,77.2L70.8,77.2L70.8,80.4L67.6,80.4L67.6,83.6L74,83.6ZM90,83.6L90,77.2L83.6,77.2L83.6,80.4L80.4,80.4L80.4,83.6L83.6,83.6L83.6,80.4L86.8,80.4L86.8,83.6L90,83.6ZM48.4,70.8L45.2,70.8L45.2,74L48.4,74L48.4,70.8ZM64.4,64.4L64.4,74L74,74L74,64.4L64.4,64.4ZM54.8,70.8L54.8,74L61.2,74L61.2,70.8L54.8,70.8ZM70.8,67.6L67.6,67.6L67.6,70.8L70.8,70.8L70.8,67.6ZM86.8,54.8L80.4,54.8L80.4,58L83.6,58L83.6,61.2L86.8,61.2L86.8,67.6L80.4,67.6L80.4,70.8L90,70.8L90,58L86.8,58L86.8,54.8ZM19.6,61.2L16.4,61.2L16.4,64.4L19.6,64.4L19.6,61.2ZM26,35.6L10,35.6L10,38.8L16.4,38.8L16.4,45.2L13.2,45.2L13.2,48.4L10,48.4L10,64.4L13.2,64.4L13.2,51.6L16.4,51.6L16.4,48.4L26,48.4L26,45.2L22.8,45.2L22.8,38.8L26,38.8L26,35.6ZM54.8,48.4L61.2,48.4L61.2,45.2L64.4,45.2L64.4,42L61.2,42L61.2,45.2L54.8,45.2L54.8,48.4L51.6,48.4L51.6,45.2L48.4,45.2L48.4,48.4L42,48.4L42,51.6L45.2,51.6L45.2,54.8L42,54.8L42,58L35.6,58L35.6,61.2L42,61.2L42,64.4L48.4,64.4L48.4,61.2L51.6,61.2L51.6,58L48.4,58L48.4,61.2L45.2,61.2L45.2,54.8L54.8,54.8L54.8,61.2L61.2,61.2L61.2,58L58,58L58,54.8L54.8,54.8L54.8,48.4ZM26,58L26,51.6L19.6,51.6L19.6,54.8L16.4,54.8L16.4,58L26,58ZM90,54.8L90,48.4L83.6,48.4L83.6,51.6L86.8,51.6L86.8,54.8L90,54.8ZM67.6,51.6L64.4,51.6L64.4,54.8L67.6,54.8L67.6,51.6ZM61.2,48.4L61.2,51.6L64.4,51.6L64.4,48.4L61.2,48.4ZM32.4,48.4L26,48.4L26,51.6L32.4,51.6L32.4,48.4ZM13.2,42L10,42L10,45.2L13.2,45.2L13.2,42ZM83.6,42L80.4,42L80.4,45.2L83.6,45.2L83.6,42ZM70.8,35.6L70.8,42L74,42L74,45.2L77.2,45.2L77.2,38.8L74,38.8L74,35.6L70.8,35.6ZM90,38.8L86.8,38.8L86.8,42L90,42L90,38.8ZM54.8,42L54.8,38.8L51.6,38.8L51.6,42L54.8,42ZM86.8,35.6L83.6,35.6L83.6,38.8L86.8,38.8L86.8,35.6ZM80.4,35.6L77.2,35.6L77.2,38.8L80.4,38.8L80.4,35.6ZM48.4,32.4L45.2,32.4L45.2,35.6L48.4,35.6L48.4,32.4ZM38.8,32.4L38.8,26L35.6,26L35.6,32.4L38.8,32.4ZM54.8,19.6L48.4,19.6L48.4,22.8L54.8,22.8L54.8,19.6ZM61.2,19.6L58,19.6L58,22.8L61.2,22.8L61.2,19.6ZM42,22.8L42,10L38.8,10L38.8,13.2L35.6,13.2L35.6,16.4L38.8,16.4L38.8,19.6L35.6,19.6L35.6,22.8L42,22.8ZM48.4,16.4L45.2,16.4L45.2,19.6L48.4,19.6L48.4,16.4ZM58,13.2L51.6,13.2L51.6,16.4L58,16.4L58,13.2ZM64.4,10L61.2,10L61.2,13.2L64.4,13.2L64.4,10ZM67.6,58L70.8,58L70.8,54.8L74,54.8L74,58L77.2,58L77.2,51.6L80.4,51.6L80.4,48.4L67.6,48.4L67.6,45.2L70.8,45.2L70.8,42L67.6,42L67.6,35.6L64.4,35.6L64.4,26L58,26L58,22.8L54.8,22.8L54.8,26L48.4,26L48.4,22.8L45.2,22.8L45.2,26L42,26L42,32.4L45.2,32.4L45.2,29.2L48.4,29.2L48.4,32.4L51.6,32.4L51.6,29.2L54.8,29.2L54.8,32.4L58,32.4L58,29.2L61.2,29.2L61.2,35.6L54.8,35.6L54.8,32.4L51.6,32.4L51.6,38.8L48.4,38.8L48.4,42L45.2,42L45.2,45.2L42,45.2L42,38.8L45.2,38.8L45.2,35.6L29.2,35.6L29.2,38.8L26,38.8L26,45.2L32.4,45.2L32.4,42L29.2,42L29.2,38.8L38.8,38.8L38.8,45.2L35.6,45.2L35.6,48.4L38.8,48.4L38.8,54.8L35.6,54.8L35.6,51.6L32.4,51.6L32.4,54.8L29.2,54.8L29.2,58L26,58L26,61.2L29.2,61.2L29.2,58L32.4,58L32.4,61.2L29.2,61.2L29.2,64.4L35.6,64.4L35.6,70.8L38.8,70.8L38.8,67.6L42,67.6L42,70.8L45.2,70.8L45.2,67.6L51.6,67.6L51.6,64.4L54.8,64.4L54.8,67.6L51.6,67.6L51.6,74L48.4,74L48.4,80.4L51.6,80.4L51.6,77.2L61.2,77.2L61.2,80.4L64.4,80.4L64.4,86.8L80.4,86.8L80.4,83.6L77.2,83.6L77.2,77.2L80.4,77.2L80.4,70.8L77.2,70.8L77.2,64.4L80.4,64.4L80.4,61.2L67.6,61.2L67.6,58Z" style="fill:rgb(17,153,255);"/>
        <path d="M32.4,10L10,10L10,32.4L32.4,32.4L32.4,10ZM29.2,13.2L29.2,29.2L13.2,29.2L13.2,13.2L29.2,13.2ZM25.968,16.4L16.368,16.4L16.368,26L25.968,26L25.968,16.4Z" style="fill:rgb(17,153,255);fill-rule:nonzero;"/>
        <path d="M90,10L67.6,10L67.6,32.4L90,32.4L90,10ZM86.8,13.2L86.8,29.2L70.8,29.2L70.8,13.2L86.8,13.2ZM83.568,16.4L73.968,16.4L73.968,26L83.568,26L83.568,16.4Z" style="fill:rgb(17,153,255);fill-rule:nonzero;"/>
        <path d="M32.4,67.6L10,67.6L10,90L32.4,90L32.4,67.6ZM29.2,70.8L29.2,86.8L13.2,86.8L13.2,70.8L29.2,70.8ZM25.968,74L16.368,74L16.368,83.6L25.968,83.6L25.968,74Z" style="fill:rgb(17,153,255);fill-rule:nonzero;"/>
    </g>
</svg>
