<?xml version="1.0" encoding="UTF-8" standalone="no"?>
<!DOCTYPE svg PUBLIC "-//W3C//DTD SVG 1.1//EN" "http://www.w3.org/Graphics/SVG/1.1/DTD/svg11.dtd">
<svg width="100%" height="100%" viewBox="0 0 64 64" version="1.1" xmlns="http://www.w3.org/2000/svg" xmlns:xlink="http://www.w3.org/1999/xlink" xml:space="preserve" style="fill-rule:evenodd;clip-rule:evenodd;stroke-miterlimit:1.5;">
    <rect id="Mintcraft-pack" x="0" y="0" width="64" height="64"/>
    <g>
        <g transform="matrix(2.45714,0,0,2.45714,-46.6286,-46.6286)">
            <g opacity="0.25">
                <g transform="matrix(0.0759219,0.0438335,3.76957e-18,0.0876671,-40.885,-57.562)">
                    <g opacity="0.5">
                        <g transform="matrix(115.25,0,0,461,499,540)">
                            <rect x="0" y="0" width="4" height="1" style="fill:rgb(127,127,127);"/>
                        </g>
                        <g transform="matrix(28.8125,0,0,28.8125,499,540)">
                            <path d="M11,15L9,15L9,16L11,16L11,15ZM15,14L12,14L12,15L16,15L16,13L15,13L15,14ZM2,13L0,13L0,14L2,14L2,13ZM5,11L5,13L6,13L6,12L7,12L7,11L5,11ZM16,11L15,11L15,12L16,12L16,11ZM14,11L12,11L12,12L14,12L14,11ZM0,9L2,9L2,10L3,10L3,8L0,8L0,9ZM15,9L11,9L11,10L15,10L15,9ZM7,9L6,9L6,10L9,10L9,9L10,9L10,8L7,8L7,9ZM5,8L4,8L4,9L5,9L5,8ZM9,6L7,6L7,7L9,7L9,6ZM6,6L3,6L3,7L6,7L6,6ZM16,5L15,5L15,6L16,6L16,5ZM2,5L1,5L1,6L2,6L2,5ZM8,4L9,4L9,5L13,5L13,4L10,4L10,3L8,3L8,4ZM6,3L5,3L5,4L6,4L6,3ZM4,3L2,3L2,4L4,4L4,3ZM4,0L0,0L0,1L4,1L4,0Z" style="fill:rgb(143,143,143);"/>
                        </g>
                        <g transform="matrix(28.8125,0,0,28.8125,499,540)">
                            <path d="M14,15L13,15L13,16L14,16L14,15ZM8,15L6,15L6,16L8,16L8,15ZM3,14L1,14L1,15L3,15L3,14ZM1,13L3,13L3,14L5,14L5,13L4,13L4,12L1,12L1,13ZM13,13L12,13L12,14L15,14L15,13L14,13L14,12L13,12L13,13ZM7,12L7,14L10,14L10,13L9,13L9,12L7,12ZM16,12L15,12L15,13L16,13L16,12ZM3,10L2,10L2,11L3,11L3,10ZM9,10L8,10L8,11L9,11L9,10ZM11,10L10,10L10,11L11,11L11,10ZM6,10L4,10L4,11L6,11L6,10ZM16,10L13,10L13,11L16,11L16,10ZM16,8L15,8L15,9L16,9L16,8ZM5,7L4,7L4,8L5,8L5,7ZM9,5L9,7L10,7L10,8L13,8L13,7L12,7L12,6L11,6L11,5L9,5ZM0,6L0,8L2,8L2,7L1,7L1,6L0,6ZM6,6L6,8L8,8L8,7L7,7L7,6L6,6ZM13,5L12,5L12,6L13,6L13,5ZM15,5L14,5L14,6L15,6L15,5ZM14,4L13,4L13,5L14,5L14,4ZM6,4L3,4L3,5L6,5L6,4ZM1,4L0,4L0,5L1,5L1,4ZM8,4L7,4L7,5L8,5L8,4ZM16,3L13,3L13,4L16,4L16,3ZM2,2L1,2L1,3L2,3L2,2ZM4,1L4,3L7,3L7,2L5,2L5,1L4,1ZM11,2L8,2L8,3L11,3L11,2ZM3,1L2,1L2,2L3,2L3,1ZM14,1L13,1L13,2L14,2L14,1ZM16,1L15,1L15,2L16,2L16,1ZM7,0L5,0L5,1L7,1L7,0ZM9,0L8,0L8,1L9,1L9,0ZM12,0L10,0L10,1L12,1L12,0Z" style="fill:rgb(116,116,116);"/>
                        </g>
                        <g transform="matrix(28.8125,0,0,28.8125,499,540)">
                            <path d="M15,12L14,12L14,13L15,13L15,12ZM13,12L11,12L11,13L13,13L13,12ZM1,10L0,10L0,11L1,11L1,10ZM8,10L6,10L6,11L8,11L8,10ZM6,7L5,7L5,8L6,8L6,7ZM4,7L2,7L2,8L4,8L4,7ZM12,5L11,5L11,6L12,6L12,5ZM14,5L13,5L13,6L14,6L14,5ZM8,2L7,2L7,3L8,3L8,2ZM4,2L2,2L2,3L4,3L4,2ZM13,1L11,1L11,2L13,2L13,1ZM10,0L9,0L9,1L10,1L10,0Z" style="fill:rgb(104,104,104);"/>
                        </g>
                    </g>
                </g>
                <g transform="matrix(0.0759219,-0.0438335,-3.76957e-18,0.0876671,-5.88503,6.39114)">
                    <g opacity="0.75">
                        <g transform="matrix(115.25,0,0,461,499,540)">
                            <rect x="0" y="0" width="4" height="1" style="fill:rgb(127,127,127);"/>
                        </g>
                        <g transform="matrix(28.8125,0,0,28.8125,499,540)">
                            <path d="M11,15L9,15L9,16L11,16L11,15ZM15,14L12,14L12,15L16,15L16,13L15,13L15,14ZM2,13L0,13L0,14L2,14L2,13ZM5,11L5,13L6,13L6,12L7,12L7,11L5,11ZM16,11L15,11L15,12L16,12L16,11ZM14,11L12,11L12,12L14,12L14,11ZM0,9L2,9L2,10L3,10L3,8L0,8L0,9ZM15,9L11,9L11,10L15,10L15,9ZM7,9L6,9L6,10L9,10L9,9L10,9L10,8L7,8L7,9ZM5,8L4,8L4,9L5,9L5,8ZM9,6L7,6L7,7L9,7L9,6ZM6,6L3,6L3,7L6,7L6,6ZM16,5L15,5L15,6L16,6L16,5ZM2,5L1,5L1,6L2,6L2,5ZM8,4L9,4L9,5L13,5L13,4L10,4L10,3L8,3L8,4ZM6,3L5,3L5,4L6,4L6,3ZM4,3L2,3L2,4L4,4L4,3ZM4,0L0,0L0,1L4,1L4,0Z" style="fill:rgb(143,143,143);"/>
                        </g>
                        <g transform="matrix(28.8125,0,0,28.8125,499,540)">
                            <path d="M14,15L13,15L13,16L14,16L14,15ZM8,15L6,15L6,16L8,16L8,15ZM3,14L1,14L1,15L3,15L3,14ZM1,13L3,13L3,14L5,14L5,13L4,13L4,12L1,12L1,13ZM13,13L12,13L12,14L15,14L15,13L14,13L14,12L13,12L13,13ZM7,12L7,14L10,14L10,13L9,13L9,12L7,12ZM16,12L15,12L15,13L16,13L16,12ZM3,10L2,10L2,11L3,11L3,10ZM9,10L8,10L8,11L9,11L9,10ZM11,10L10,10L10,11L11,11L11,10ZM6,10L4,10L4,11L6,11L6,10ZM16,10L13,10L13,11L16,11L16,10ZM16,8L15,8L15,9L16,9L16,8ZM5,7L4,7L4,8L5,8L5,7ZM9,5L9,7L10,7L10,8L13,8L13,7L12,7L12,6L11,6L11,5L9,5ZM0,6L0,8L2,8L2,7L1,7L1,6L0,6ZM6,6L6,8L8,8L8,7L7,7L7,6L6,6ZM13,5L12,5L12,6L13,6L13,5ZM15,5L14,5L14,6L15,6L15,5ZM14,4L13,4L13,5L14,5L14,4ZM6,4L3,4L3,5L6,5L6,4ZM1,4L0,4L0,5L1,5L1,4ZM8,4L7,4L7,5L8,5L8,4ZM16,3L13,3L13,4L16,4L16,3ZM2,2L1,2L1,3L2,3L2,2ZM4,1L4,3L7,3L7,2L5,2L5,1L4,1ZM11,2L8,2L8,3L11,3L11,2ZM3,1L2,1L2,2L3,2L3,1ZM14,1L13,1L13,2L14,2L14,1ZM16,1L15,1L15,2L16,2L16,1ZM7,0L5,0L5,1L7,1L7,0ZM9,0L8,0L8,1L9,1L9,0ZM12,0L10,0L10,1L12,1L12,0Z" style="fill:rgb(116,116,116);"/>
                        </g>
                        <g transform="matrix(28.8125,0,0,28.8125,499,540)">
                            <path d="M15,12L14,12L14,13L15,13L15,12ZM13,12L11,12L11,13L13,13L13,12ZM1,10L0,10L0,11L1,11L1,10ZM8,10L6,10L6,11L8,11L8,10ZM6,7L5,7L5,8L6,8L6,7ZM4,7L2,7L2,8L4,8L4,7ZM12,5L11,5L11,6L12,6L12,5ZM14,5L13,5L13,6L14,6L14,5ZM8,2L7,2L7,3L8,3L8,2ZM4,2L2,2L2,3L4,3L4,2ZM13,1L11,1L11,2L13,2L13,1ZM10,0L9,0L9,1L10,1L10,0Z" style="fill:rgb(104,104,104);"/>
                        </g>
                    </g>
                </g>
                <g transform="matrix(0.0759219,-0.0438335,0.0759219,0.0438335,-81.8829,9.99557)">
                    <g transform="matrix(115.25,0,0,461,499,540)">
                        <rect x="0" y="0" width="4" height="1" style="fill:rgb(127,127,127);"/>
                    </g>
                    <g transform="matrix(28.8125,0,0,28.8125,499,540)">
                        <path d="M11,15L9,15L9,16L11,16L11,15ZM15,14L12,14L12,15L16,15L16,13L15,13L15,14ZM2,13L0,13L0,14L2,14L2,13ZM5,11L5,13L6,13L6,12L7,12L7,11L5,11ZM16,11L15,11L15,12L16,12L16,11ZM14,11L12,11L12,12L14,12L14,11ZM0,9L2,9L2,10L3,10L3,8L0,8L0,9ZM15,9L11,9L11,10L15,10L15,9ZM7,9L6,9L6,10L9,10L9,9L10,9L10,8L7,8L7,9ZM5,8L4,8L4,9L5,9L5,8ZM9,6L7,6L7,7L9,7L9,6ZM6,6L3,6L3,7L6,7L6,6ZM16,5L15,5L15,6L16,6L16,5ZM2,5L1,5L1,6L2,6L2,5ZM8,4L9,4L9,5L13,5L13,4L10,4L10,3L8,3L8,4ZM6,3L5,3L5,4L6,4L6,3ZM4,3L2,3L2,4L4,4L4,3ZM4,0L0,0L0,1L4,1L4,0Z" style="fill:rgb(143,143,143);"/>
                    </g>
                    <g transform="matrix(28.8125,0,0,28.8125,499,540)">
                        <path d="M14,15L13,15L13,16L14,16L14,15ZM8,15L6,15L6,16L8,16L8,15ZM3,14L1,14L1,15L3,15L3,14ZM1,13L3,13L3,14L5,14L5,13L4,13L4,12L1,12L1,13ZM13,13L12,13L12,14L15,14L15,13L14,13L14,12L13,12L13,13ZM7,12L7,14L10,14L10,13L9,13L9,12L7,12ZM16,12L15,12L15,13L16,13L16,12ZM3,10L2,10L2,11L3,11L3,10ZM9,10L8,10L8,11L9,11L9,10ZM11,10L10,10L10,11L11,11L11,10ZM6,10L4,10L4,11L6,11L6,10ZM16,10L13,10L13,11L16,11L16,10ZM16,8L15,8L15,9L16,9L16,8ZM5,7L4,7L4,8L5,8L5,7ZM9,5L9,7L10,7L10,8L13,8L13,7L12,7L12,6L11,6L11,5L9,5ZM0,6L0,8L2,8L2,7L1,7L1,6L0,6ZM6,6L6,8L8,8L8,7L7,7L7,6L6,6ZM13,5L12,5L12,6L13,6L13,5ZM15,5L14,5L14,6L15,6L15,5ZM14,4L13,4L13,5L14,5L14,4ZM6,4L3,4L3,5L6,5L6,4ZM1,4L0,4L0,5L1,5L1,4ZM8,4L7,4L7,5L8,5L8,4ZM16,3L13,3L13,4L16,4L16,3ZM2,2L1,2L1,3L2,3L2,2ZM4,1L4,3L7,3L7,2L5,2L5,1L4,1ZM11,2L8,2L8,3L11,3L11,2ZM3,1L2,1L2,2L3,2L3,1ZM14,1L13,1L13,2L14,2L14,1ZM16,1L15,1L15,2L16,2L16,1ZM7,0L5,0L5,1L7,1L7,0ZM9,0L8,0L8,1L9,1L9,0ZM12,0L10,0L10,1L12,1L12,0Z" style="fill:rgb(116,116,116);"/>
                    </g>
                    <g transform="matrix(28.8125,0,0,28.8125,499,540)">
                        <path d="M15,12L14,12L14,13L15,13L15,12ZM13,12L11,12L11,13L13,13L13,12ZM1,10L0,10L0,11L1,11L1,10ZM8,10L6,10L6,11L8,11L8,10ZM6,7L5,7L5,8L6,8L6,7ZM4,7L2,7L2,8L4,8L4,7ZM12,5L11,5L11,6L12,6L12,5ZM14,5L13,5L13,6L14,6L14,5ZM8,2L7,2L7,3L8,3L8,2ZM4,2L2,2L2,3L4,3L4,2ZM13,1L11,1L11,2L13,2L13,1ZM10,0L9,0L9,1L10,1L10,0Z" style="fill:rgb(104,104,104);"/>
                    </g>
                </g>
            </g>
        </g>
        <g transform="matrix(0.280654,0,0,0.280654,-374.923,-271.394)">
            <g transform="matrix(2.91486,0,0,2.91486,-5178.49,-1985.41)">
                <path d="M2293.56,1040.71L2274,1029.42L2254.44,1040.71L2254.44,1063.29L2274,1074.58L2293.56,1063.29L2293.56,1040.71ZM2274,1036.58L2287.35,1044.29L2287.35,1059.71L2274,1067.42L2260.65,1059.71L2260.65,1044.29L2274,1036.58Z" style="fill:url(#_Linear1);"/>
            </g>
            <g transform="matrix(2.52563,0,0,2.52563,-4293.37,-1583.48)">
                <path d="M2251.43,1041.96L2251.43,1046.1L2274,1059.12L2296.57,1046.1L2296.57,1041.96L2274,1028.92L2251.43,1041.96ZM2262.17,1044.03L2274,1037.2L2285.83,1044.03L2274,1050.85L2262.17,1044.03Z" style="fill:rgb(255,187,34);"/>
            </g>
        </g>
    </g>
    <rect x="0" y="0" width="64" height="64" style="fill:none;stroke:url(#_Linear2);stroke-width:1px;"/>
    <defs>
        <linearGradient id="_Linear1" x1="0" y1="0" x2="1" y2="0" gradientUnits="userSpaceOnUse" gradientTransform="matrix(-4.54356e-13,-10.9586,10.9586,-4.54356e-13,2274,1054.92)"><stop offset="0" style="stop-color:rgb(221,153,34);stop-opacity:1"/><stop offset="1" style="stop-color:rgb(153,102,0);stop-opacity:1"/></linearGradient>
        <linearGradient id="_Linear2" x1="0" y1="0" x2="1" y2="0" gradientUnits="userSpaceOnUse" gradientTransform="matrix(64,64,-64,64,0,0)"><stop offset="0" style="stop-color:white;stop-opacity:0.1"/><stop offset="1" style="stop-color:white;stop-opacity:0"/></linearGradient>
    </defs>
</svg>
