<?xml version="1.0" encoding="UTF-8" standalone="no"?>
<!DOCTYPE svg PUBLIC "-//W3C//DTD SVG 1.1//EN" "http://www.w3.org/Graphics/SVG/1.1/DTD/svg11.dtd">
<svg width="100%" height="100%" viewBox="0 0 64 64" version="1.1" xmlns="http://www.w3.org/2000/svg" xmlns:xlink="http://www.w3.org/1999/xlink" xml:space="preserve" style="fill-rule:evenodd;clip-rule:evenodd;stroke-miterlimit:1.5;">
    <rect x="0" y="0" width="64" height="64"/>
    <g>
        <g opacity="0.25">
            <g transform="matrix(21.5,12.413,4.26996e-15,99.3042,-54,-18)">
                <rect x="0" y="0" width="4" height="1" style="fill:rgb(127,127,127);fill-opacity:0.5;"/>
            </g>
            <g transform="matrix(21.5,-12.413,-4.26996e-15,99.3042,32,31.6521)">
                <rect x="0" y="0" width="4" height="1" style="fill:rgb(127,127,127);fill-opacity:0.75;"/>
            </g>
            <g transform="matrix(21.5,-12.413,86,49.6521,-54,-17.6521)">
                <rect x="0" y="0" width="4" height="1" style="fill:rgb(127,127,127);"/>
            </g>
        </g>
        <g transform="matrix(1,0,0,1,4,-6)">
            <g transform="matrix(1,0,0,1,-4,6)">
                <path d="M26,27L19,27L19,37L26,37L26,35L21,35L21,29L26,29L26,27Z" style="fill:rgb(221,153,34);"/>
            </g>
            <g transform="matrix(1,0,0,1,-4,6)">
                <path d="M43,27L43,37L39,37L39,39L43,39L43,37L45,37L45,27L43,27ZM41,35L41,29L39,29L39,35L41,35ZM43,25L39,25L39,27L43,27L43,25Z" style="fill:rgb(238,238,238);"/>
            </g>
            <g transform="matrix(1,0,0,1,-4,6)">
                <path d="M27,39L27,25L29,25L29,23L31,23L31,21L35,21L35,43L31,43L31,41L29,41L29,39L27,39ZM27,23L27,25L25,25L25,39L27,39L27,41L29,41L29,43L31,43L31,45L37,45L37,19L31,19L31,21L29,21L29,23L27,23Z" style="fill:rgb(255,187,34);"/>
            </g>
        </g>
        <g transform="matrix(0.291667,0,0,0.411765,0.166667,37.8235)">
            <path d="M32,32L32,49" style="fill:none;stroke:url(#_Linear1);stroke-width:2.8px;"/>
        </g>
        <g transform="matrix(1.78594e-17,-0.291667,0.411765,2.52133e-17,-7.17647,63.8333)">
            <path d="M32,32L32,49" style="fill:none;stroke:rgb(255,187,34);stroke-width:2.8px;"/>
        </g>
        <g transform="matrix(0.796272,0,0,0.795356,33.3397,10.2786)">
            <g transform="matrix(12.573,0,0,12.573,-23.6606,60)">
                <path d="M0.45,-0.1L0.05,-0.1L0.05,-0L0.45,-0L0.45,-0.1ZM0.55,-0.1L0.55,-0.3L0.45,-0.3L0.45,-0.1L0.55,-0.1ZM0.15,-0.3L0.45,-0.3L0.45,-0.4L0.15,-0.4L0.15,-0.3ZM0.15,-0.4L0.15,-0.6L0.05,-0.6L0.05,-0.4L0.15,-0.4ZM0.55,-0.7L0.15,-0.7L0.15,-0.6L0.55,-0.6L0.55,-0.7Z" style="fill:rgb(238,238,238);fill-rule:nonzero;"/>
            </g>
            <g transform="matrix(12.573,0,0,12.573,-16.1294,60)">
                <path d="M0.45,-0.5L0.15,-0.5L0.15,-0.4L0.45,-0.4L0.45,-0.1L0.15,-0.1L0.15,-0L0.45,-0L0.45,-0.1L0.55,-0.1L0.55,-0.4L0.45,-0.4L0.45,-0.5ZM0.05,-0.4L0.05,-0.1L0.15,-0.1L0.15,-0.4L0.05,-0.4Z" style="fill:rgb(238,238,238);fill-rule:nonzero;"/>
            </g>
            <g transform="matrix(12.573,0,0,12.573,-8.59813,60)">
                <path d="M0.55,-0L0.55,-0.5L0.45,-0.5L0.45,-0.1L0.15,-0.1L0.15,-0L0.55,-0ZM0.15,-0.1L0.15,-0.5L0.05,-0.5L0.05,-0.1L0.15,-0.1Z" style="fill:rgb(238,238,238);fill-rule:nonzero;"/>
            </g>
            <g transform="matrix(12.573,0,0,12.573,-1.06691,60)">
                <path d="M0.55,-0L0.55,-0.4L0.45,-0.4L0.45,-0L0.55,-0ZM0.15,-0L0.15,-0.4L0.45,-0.4L0.45,-0.5L0.05,-0.5L0.05,-0L0.15,-0Z" style="fill:rgb(238,238,238);fill-rule:nonzero;"/>
            </g>
            <g transform="matrix(12.573,0,0,12.573,6.46431,60)">
                <path d="M0.15,-0L0.55,-0L0.55,-0.7L0.45,-0.7L0.45,-0.5L0.15,-0.5L0.15,-0.4L0.45,-0.4L0.45,-0.1L0.15,-0.1L0.15,-0ZM0.05,-0.4L0.05,-0.1L0.15,-0.1L0.15,-0.4L0.05,-0.4Z" style="fill:rgb(238,238,238);fill-rule:nonzero;"/>
            </g>
            <g transform="matrix(12.573,0,0,12.573,14.0081,60)">
                <path d="M0.45,-0.1L0.05,-0.1L0.05,-0L0.45,-0L0.45,-0.1L0.55,-0.1L0.55,-0.2L0.45,-0.2L0.45,-0.1ZM0.45,-0.3L0.15,-0.3L0.15,-0.2L0.45,-0.2L0.45,-0.3ZM0.15,-0.4L0.05,-0.4L0.05,-0.3L0.15,-0.3L0.15,-0.4ZM0.55,-0.5L0.15,-0.5L0.15,-0.4L0.55,-0.4L0.55,-0.5Z" style="fill:rgb(238,238,238);fill-rule:nonzero;"/>
            </g>
        </g>
    </g>
    <rect x="0" y="0" width="64" height="64" style="fill:none;stroke:url(#_Linear2);stroke-width:1px;"/>
    <defs>
        <linearGradient id="_Linear1" x1="0" y1="0" x2="1" y2="0" gradientUnits="userSpaceOnUse" gradientTransform="matrix(1.04095e-15,-17,17,1.04095e-15,32,49)"><stop offset="0" style="stop-color:rgb(221,153,34);stop-opacity:1"/><stop offset="1" style="stop-color:rgb(153,102,0);stop-opacity:1"/></linearGradient>
        <linearGradient id="_Linear2" x1="0" y1="0" x2="1" y2="0" gradientUnits="userSpaceOnUse" gradientTransform="matrix(64,64,-64,64,0,0)"><stop offset="0" style="stop-color:white;stop-opacity:0.1"/><stop offset="1" style="stop-color:white;stop-opacity:0"/></linearGradient>
    </defs>
</svg>
