<?xml version="1.0" encoding="UTF-8" standalone="no"?>
<!DOCTYPE svg PUBLIC "-//W3C//DTD SVG 1.1//EN" "http://www.w3.org/Graphics/SVG/1.1/DTD/svg11.dtd">
<svg width="100%" height="100%" viewBox="0 0 491 491" version="1.1" xmlns="http://www.w3.org/2000/svg" xmlns:xlink="http://www.w3.org/1999/xlink" xml:space="preserve" xmlns:serif="http://www.serif.com/" style="fill-rule:evenodd;clip-rule:evenodd;stroke-linejoin:round;stroke-miterlimit:2;">
    <g transform="matrix(1,0,0,1,-858.538,-879.5)">
        <path d="M1080.61,904.412C1081.68,892.418 1091.77,883 1104.04,883C1116.31,883 1126.4,892.418 1127.46,904.412C1231.19,915.315 1313.72,997.84 1324.63,1101.57C1336.62,1102.64 1346.04,1112.73 1346.04,1125C1346.04,1137.27 1336.62,1147.36 1324.63,1148.43C1313.72,1252.15 1231.2,1334.68 1127.46,1345.59C1126.4,1357.58 1116.31,1367 1104.04,1367C1091.77,1367 1081.68,1357.58 1080.61,1345.59C976.889,1334.68 894.361,1252.16 883.45,1148.43C871.456,1147.36 862.038,1137.27 862.038,1125C862.038,1112.73 871.456,1102.64 883.45,1101.57C894.353,997.851 976.879,915.323 1080.61,904.412ZM1127.12,911.08C1227.44,921.803 1307.23,1001.59 1317.96,1101.92C1307.16,1104.05 1299,1113.58 1299,1125C1299,1136.42 1307.16,1145.95 1317.96,1148.08C1307.24,1248.4 1227.44,1328.19 1127.12,1338.92C1124.99,1328.12 1115.46,1319.96 1104.04,1319.96C1092.62,1319.96 1083.08,1328.12 1080.96,1338.92C980.635,1328.2 900.845,1248.41 890.118,1148.08C900.92,1145.95 909.079,1136.42 909.079,1125C909.079,1113.58 900.92,1104.05 890.118,1101.92C900.841,1001.6 980.631,921.807 1080.96,911.08C1083.08,921.881 1092.62,930.041 1104.04,930.041C1115.46,930.041 1124.99,921.881 1127.12,911.08Z" style="fill:rgb(0,153,85);"/>
    </g>
    <g transform="matrix(1,0,0,1,-858.538,-879.5)">
        <path d="M995.928,1346.81C994.451,1352.47 989.299,1356.66 983.177,1356.66C975.905,1356.66 970,1350.75 970,1343.48C970,1336.21 975.905,1330.3 983.177,1330.3C989.299,1330.3 994.451,1334.49 995.928,1340.15L1077.39,1340.15C1079.03,1326.89 1090.35,1316.63 1104.04,1316.63C1117.73,1316.63 1129.04,1326.89 1130.69,1340.15L1212.15,1340.15C1213.63,1334.49 1218.78,1330.3 1224.9,1330.3C1232.17,1330.3 1238.08,1336.21 1238.08,1343.48C1238.08,1350.75 1232.17,1356.66 1224.9,1356.66C1218.78,1356.66 1213.63,1352.47 1212.15,1346.81L1130.69,1346.81C1129.04,1360.06 1117.73,1370.33 1104.04,1370.33C1090.35,1370.33 1079.03,1360.06 1077.39,1346.81L995.928,1346.81ZM1104.04,1363.67C1092.9,1363.67 1083.85,1354.62 1083.85,1343.48C1083.85,1332.34 1092.9,1323.29 1104.04,1323.29C1115.18,1323.29 1124.23,1332.34 1124.23,1343.48C1124.23,1354.62 1115.18,1363.67 1104.04,1363.67ZM882.225,1016.89C876.565,1015.41 872.382,1010.26 872.382,1004.14C872.382,996.866 878.286,990.962 885.559,990.962C892.831,990.962 898.736,996.866 898.736,1004.14C898.736,1010.26 894.553,1015.41 888.892,1016.89L888.892,1098.35C902.144,1100 912.413,1111.31 912.413,1125C912.413,1138.69 902.144,1150 888.892,1151.65L888.892,1233.11C894.553,1234.59 898.736,1239.74 898.736,1245.86C898.736,1253.13 892.831,1259.04 885.559,1259.04C878.286,1259.04 872.382,1253.13 872.382,1245.86C872.382,1239.74 876.565,1234.59 882.225,1233.11L882.225,1151.65C868.974,1150 858.705,1138.69 858.705,1125C858.705,1111.31 868.974,1100 882.225,1098.35L882.225,1016.89ZM1325.85,1233.11C1331.51,1234.59 1335.69,1239.74 1335.69,1245.86C1335.69,1253.13 1329.79,1259.04 1322.52,1259.04C1315.25,1259.04 1309.34,1253.13 1309.34,1245.86C1309.34,1239.74 1313.52,1234.59 1319.18,1233.11L1319.18,1151.65C1305.93,1150 1295.66,1138.69 1295.66,1125C1295.66,1111.31 1305.93,1100 1319.18,1098.35L1319.18,1016.89C1313.52,1015.41 1309.34,1010.26 1309.34,1004.14C1309.34,996.866 1315.25,990.962 1322.52,990.962C1329.79,990.962 1335.69,996.866 1335.69,1004.14C1335.69,1010.26 1331.51,1015.41 1325.85,1016.89L1325.85,1098.35C1339.1,1100 1349.37,1111.31 1349.37,1125C1349.37,1138.69 1339.1,1150 1325.85,1151.65L1325.85,1233.11ZM865.371,1125C865.371,1113.86 874.417,1104.81 885.559,1104.81C896.7,1104.81 905.746,1113.86 905.746,1125C905.746,1136.14 896.7,1145.19 885.559,1145.19C874.417,1145.19 865.371,1136.14 865.371,1125ZM1342.7,1125C1342.7,1136.14 1333.66,1145.19 1322.52,1145.19C1311.38,1145.19 1302.33,1136.14 1302.33,1125C1302.33,1113.86 1311.38,1104.81 1322.52,1104.81C1333.66,1104.81 1342.7,1113.86 1342.7,1125ZM1212.15,903.187C1213.63,897.526 1218.78,893.343 1224.9,893.343C1232.17,893.343 1238.08,899.248 1238.08,906.521C1238.08,913.793 1232.17,919.698 1224.9,919.698C1218.78,919.698 1213.63,915.515 1212.15,909.854L1130.69,909.854C1129.04,923.106 1117.73,933.374 1104.04,933.374C1090.35,933.374 1079.03,923.106 1077.39,909.854L995.928,909.854C994.451,915.515 989.299,919.698 983.177,919.698C975.905,919.698 970,913.793 970,906.521C970,899.248 975.905,893.343 983.177,893.343C989.299,893.343 994.451,897.526 995.928,903.187L1077.39,903.187C1079.03,889.936 1090.35,879.667 1104.04,879.667C1117.73,879.667 1129.04,889.936 1130.69,903.187L1212.15,903.187ZM1104.04,886.333C1115.18,886.333 1124.23,895.379 1124.23,906.521C1124.23,917.662 1115.18,926.708 1104.04,926.708C1092.9,926.708 1083.85,917.662 1083.85,906.521C1083.85,895.379 1092.9,886.333 1104.04,886.333Z" style="fill:rgb(0,204,102);"/>
    </g>
</svg>
