<?xml version="1.0" encoding="UTF-8" standalone="no"?>
<!DOCTYPE svg PUBLIC "-//W3C//DTD SVG 1.1//EN" "http://www.w3.org/Graphics/SVG/1.1/DTD/svg11.dtd">
<svg width="100%" height="100%" viewBox="0 0 236 417" version="1.1" xmlns="http://www.w3.org/2000/svg" xmlns:xlink="http://www.w3.org/1999/xlink" xml:space="preserve" xmlns:serif="http://www.serif.com/" style="fill-rule:evenodd;clip-rule:evenodd;stroke-linejoin:round;stroke-miterlimit:2;">
    <g transform="matrix(1,0,0,1,-232.778,-898.5)">
        <path d="M426.924,918.618L426.924,901.924L465.076,901.924L465.076,940.076L426.924,940.076L426.924,925.32C342.655,934.081 275.334,1000.23 264.775,1083.96C275.47,1086.17 283.521,1095.65 283.521,1107C283.521,1118.35 275.47,1127.83 264.775,1130.04C275.331,1213.76 342.647,1279.91 426.924,1288.68L426.924,1273.92L465.076,1273.92L465.076,1312.08L426.924,1312.08L426.924,1295.38C339.114,1286.58 268.906,1217.67 258.107,1130.44C246.009,1129.48 236.479,1119.34 236.479,1107C236.479,1094.66 246.009,1084.52 258.107,1083.56C268.904,996.332 339.108,927.423 426.924,918.618Z" style="fill:rgb(0,153,85);"/>
    </g>
    <g transform="matrix(1,0,0,1,-232.778,-898.5)">
        <path d="M468.41,1315.41L468.41,1270.59L423.59,1270.59L423.59,1315.41L468.41,1315.41ZM461.743,1277.26L461.743,1308.74C461.743,1308.74 430.257,1308.74 430.257,1308.74C430.257,1308.74 430.257,1277.26 430.257,1277.26C430.257,1277.26 461.743,1277.26 461.743,1277.26ZM256.667,1016.57C251.006,1015.1 246.823,1009.94 246.823,1003.82C246.823,996.55 252.727,990.646 260,990.646C267.273,990.646 273.177,996.55 273.177,1003.82C273.177,1009.94 268.994,1015.1 263.333,1016.57L263.333,1080.35C276.585,1082 286.854,1093.31 286.854,1107C286.854,1120.69 276.585,1132 263.333,1133.65L263.333,1197.43C268.994,1198.9 273.177,1204.06 273.177,1210.18C273.177,1217.45 267.273,1223.35 260,1223.35C252.727,1223.35 246.823,1217.45 246.823,1210.18C246.823,1204.06 251.006,1198.9 256.667,1197.43L256.667,1133.65C243.415,1132 233.146,1120.69 233.146,1107C233.146,1093.31 243.415,1082 256.667,1080.35L256.667,1016.57ZM239.813,1107C239.813,1095.86 248.858,1086.81 260,1086.81C271.142,1086.81 280.187,1095.86 280.187,1107C280.187,1118.14 271.142,1127.19 260,1127.19C248.858,1127.19 239.813,1118.14 239.813,1107ZM468.41,943.41L468.41,898.59L423.59,898.59L423.59,943.41L468.41,943.41ZM461.743,905.257L461.743,936.743C461.743,936.743 430.257,936.743 430.257,936.743C430.257,936.743 430.257,905.257 430.257,905.257C430.257,905.257 461.743,905.257 461.743,905.257Z" style="fill:rgb(0,204,102);"/>
    </g>
</svg>
