<?xml version="1.0" encoding="UTF-8" standalone="no"?>
<!DOCTYPE svg PUBLIC "-//W3C//DTD SVG 1.1//EN" "http://www.w3.org/Graphics/SVG/1.1/DTD/svg11.dtd">
<svg width="100%" height="100%" viewBox="0 0 380 45" version="1.1" xmlns="http://www.w3.org/2000/svg" xmlns:xlink="http://www.w3.org/1999/xlink" xml:space="preserve" xmlns:serif="http://www.serif.com/" style="fill-rule:evenodd;clip-rule:evenodd;stroke-linejoin:round;stroke-miterlimit:2;">
    <g transform="matrix(1,0,0,1,-1483.26,-785.5)">
        <path d="M1525.08,804.667L1525.08,788.924L1486.92,788.924L1486.92,827.076L1525.08,827.076L1525.08,811.333L1821.44,811.333L1821.44,827.076L1859.59,827.076L1859.59,788.924L1821.44,788.924L1821.44,804.667L1525.08,804.667Z" style="fill:rgb(0,153,85);"/>
    </g>
    <g transform="matrix(1,0,0,1,-1483.26,-785.5)">
        <path d="M1528.41,830.41L1528.41,785.59L1483.59,785.59L1483.59,830.41L1528.41,830.41ZM1862.93,830.41L1862.93,785.59L1818.11,785.59L1818.11,830.41L1862.93,830.41ZM1521.74,792.257L1521.74,823.743C1521.74,823.743 1490.26,823.743 1490.26,823.743C1490.26,823.743 1490.26,792.257 1490.26,792.257C1490.26,792.257 1521.74,792.257 1521.74,792.257ZM1856.26,792.257L1856.26,823.743C1856.26,823.743 1824.78,823.743 1824.78,823.743C1824.78,823.743 1824.78,792.257 1824.78,792.257C1824.78,792.257 1856.26,792.257 1856.26,792.257Z" style="fill:rgb(0,204,102);"/>
    </g>
</svg>
