<?xml version="1.0" encoding="UTF-8" standalone="no"?>
<!DOCTYPE svg PUBLIC "-//W3C//DTD SVG 1.1//EN" "http://www.w3.org/Graphics/SVG/1.1/DTD/svg11.dtd">
<svg width="100%" height="100%" viewBox="0 0 232 232" version="1.1" xmlns="http://www.w3.org/2000/svg" xmlns:xlink="http://www.w3.org/1999/xlink" xml:space="preserve" xmlns:serif="http://www.serif.com/" style="fill-rule:evenodd;clip-rule:evenodd;stroke-linejoin:round;stroke-miterlimit:2;">
    <g transform="matrix(1,0,0,1,-1372.95,-403.479)">
        <path d="M1414.62,422.667L1414.62,406.924L1376.47,406.924L1376.47,445.076L1392.06,445.076L1392.06,593.883L1376.47,593.883L1376.47,632.035L1414.62,632.035L1414.62,616.292L1563.28,616.292L1563.28,632.035L1601.43,632.035L1601.43,593.883L1585.68,593.883L1585.68,445.076L1601.43,445.076L1601.43,406.924L1563.28,406.924L1563.28,422.667L1414.62,422.667ZM1414.62,445.076L1398.73,445.076L1398.73,593.883L1414.62,593.883L1414.62,609.626L1563.28,609.626L1563.28,593.883L1579.02,593.883L1579.02,445.076L1563.28,445.076L1563.28,429.333L1414.62,429.333L1414.62,445.076Z" style="fill:rgb(0,153,85);"/>
    </g>
    <g transform="matrix(1,0,0,1,-1372.95,-403.479)">
        <path d="M1604.76,635.368L1604.76,590.549L1559.94,590.549L1559.94,635.368L1604.76,635.368ZM1417.95,635.368L1417.95,590.549L1373.13,590.549L1373.13,635.368L1417.95,635.368ZM1598.09,597.216L1598.09,628.702C1598.09,628.702 1566.61,628.702 1566.61,628.702C1566.61,628.702 1566.61,597.216 1566.61,597.216C1566.61,597.216 1598.09,597.216 1598.09,597.216ZM1411.29,597.216L1411.29,628.702C1411.29,628.702 1379.8,628.702 1379.8,628.702C1379.8,628.702 1379.8,597.216 1379.8,597.216C1379.8,597.216 1411.29,597.216 1411.29,597.216ZM1417.95,448.41L1417.95,403.59L1373.13,403.59L1373.13,448.41L1417.95,448.41ZM1604.76,448.41L1604.76,403.59L1559.94,403.59L1559.94,448.41L1604.76,448.41ZM1411.29,410.257L1411.29,441.743C1411.29,441.743 1379.8,441.743 1379.8,441.743C1379.8,441.743 1379.8,410.257 1379.8,410.257C1379.8,410.257 1411.29,410.257 1411.29,410.257ZM1598.09,410.257L1598.09,441.743C1598.09,441.743 1566.61,441.743 1566.61,441.743C1566.61,441.743 1566.61,410.257 1566.61,410.257C1566.61,410.257 1598.09,410.257 1598.09,410.257Z" style="fill:rgb(0,204,102);"/>
    </g>
</svg>
