<?xml version="1.0" encoding="UTF-8" standalone="no"?>
<!DOCTYPE svg PUBLIC "-//W3C//DTD SVG 1.1//EN" "http://www.w3.org/Graphics/SVG/1.1/DTD/svg11.dtd">
<svg width="100%" height="100%" viewBox="0 0 376 332" version="1.1" xmlns="http://www.w3.org/2000/svg" xmlns:xlink="http://www.w3.org/1999/xlink" xml:space="preserve" xmlns:serif="http://www.serif.com/" style="fill-rule:evenodd;clip-rule:evenodd;stroke-linejoin:round;stroke-miterlimit:2;">
    <g transform="matrix(1,0,0,1,-383.282,-366.149)">
        <path d="M556.419,408.153L413.241,656.145L387,656.145L387,694.297L425.153,694.297L425.153,678.554L717.411,678.554L717.411,694.297L755.564,694.297L755.564,656.145L729.323,656.145L586.145,408.153L590.358,408.153L590.358,370L552.206,370L552.206,408.153L556.419,408.153ZM721.625,656.145L578.447,408.153L564.117,408.153L420.939,656.145L425.153,656.145L425.153,671.888L717.411,671.888L717.411,656.145L721.625,656.145Z" style="fill:rgb(0,153,85);"/>
    </g>
    <g transform="matrix(1,0,0,1,-383.282,-366.149)">
        <path d="M758.897,697.631L758.897,652.811L714.078,652.811L714.078,697.631L758.897,697.631ZM428.486,697.631L428.486,652.811L383.667,652.811L383.667,697.631L428.486,697.631ZM752.231,659.478L752.231,690.964C752.231,690.964 720.745,690.964 720.745,690.964C720.745,690.964 720.745,659.478 720.745,659.478C720.745,659.478 752.231,659.478 752.231,659.478ZM421.819,659.478L421.819,690.964C421.819,690.964 390.333,690.964 390.333,690.964C390.333,690.964 390.333,659.478 390.333,659.478C390.333,659.478 421.819,659.478 421.819,659.478ZM593.692,411.486L593.692,366.667L548.872,366.667L548.872,411.486L593.692,411.486ZM587.025,373.333L587.025,404.819C587.025,404.819 555.539,404.819 555.539,404.819C555.539,404.819 555.539,373.333 555.539,373.333C555.539,373.333 587.025,373.333 587.025,373.333Z" style="fill:rgb(0,204,102);"/>
    </g>
</svg>
